<svg width="1436" height="1436" viewBox="0 0 1436 1436" fill="none" xmlns="http://www.w3.org/2000/svg">
<g clip-path="url(#clip0_38_94)">
<rect width="1436" height="1436" fill="black"/>
<rect width="1436" height="1436" fill="black"/>
<path d="M306.347 660.56C306.347 676.421 319.206 689.28 335.067 689.28C350.929 689.28 363.787 676.421 363.787 660.56H306.347ZM376.175 856.867C370.106 842.212 353.305 835.254 338.651 841.324C323.997 847.393 317.038 864.192 323.108 878.847L376.175 856.867ZM784.328 1092.11L805.087 1057.05L755.654 1027.79L734.896 1062.86L784.328 1092.11ZM630.913 1057.05L651.673 1092.11L701.102 1062.86L680.343 1027.79L630.913 1057.05ZM734.896 1062.86C727.516 1075.33 708.485 1075.33 701.102 1062.86L651.673 1092.11C681.296 1142.16 754.705 1142.16 784.328 1092.11L734.896 1062.86ZM660.561 363.787H775.441V306.347H660.561V363.787ZM1072.21 660.56V698.853H1129.65V660.56H1072.21ZM557.264 957.012C509.189 956.181 483.999 953.125 464.253 944.945L442.272 998.012C473.097 1010.78 508.206 1013.61 556.275 1014.44L557.264 957.012ZM323.108 878.847C345.455 932.799 388.32 975.664 442.272 998.012L464.253 944.945C424.376 928.426 392.693 896.746 376.175 856.867L323.108 878.847ZM1072.21 698.853C1072.21 743.852 1072.2 776.164 1070.46 801.659C1068.74 826.899 1065.42 843.357 1059.83 856.867L1112.89 878.847C1121.87 857.173 1125.84 833.734 1127.77 805.569C1129.67 777.665 1129.65 743.067 1129.65 698.853H1072.21ZM879.725 1014.44C927.794 1013.61 962.906 1010.78 993.728 998.012L971.747 944.945C952.003 953.125 926.81 956.181 878.737 957.012L879.725 1014.44ZM1059.83 856.867C1043.31 896.746 1011.63 928.426 971.747 944.945L993.728 998.012C1047.68 975.664 1090.54 932.799 1112.89 878.847L1059.83 856.867ZM775.441 363.787C838.67 363.787 884.079 363.817 919.496 367.184C954.489 370.511 976.752 376.892 994.501 387.769L1024.52 338.793C996.221 321.456 964.127 313.729 924.934 310.003C886.166 306.316 837.56 306.347 775.441 306.347V363.787ZM1129.65 660.56C1129.65 598.441 1129.68 549.835 1126 511.067C1122.27 471.872 1114.54 439.778 1097.21 411.486L1048.23 441.498C1059.11 459.249 1065.49 481.513 1068.82 516.504C1072.18 551.922 1072.21 597.329 1072.21 660.56H1129.65ZM994.501 387.769C1016.4 401.189 1034.81 419.6 1048.23 441.498L1097.21 411.486C1079.05 381.859 1054.14 356.949 1024.52 338.793L994.501 387.769ZM660.561 306.347C598.441 306.347 549.835 306.316 511.068 310.003C471.872 313.729 439.778 321.456 411.487 338.793L441.499 387.769C459.249 376.892 481.514 370.511 516.504 367.184C551.922 363.817 597.329 363.787 660.561 363.787V306.347ZM363.787 660.56C363.787 597.329 363.817 551.922 367.185 516.504C370.512 481.513 376.892 459.249 387.77 441.498L338.794 411.486C321.457 439.778 313.73 471.872 310.003 511.067C306.317 549.835 306.347 598.441 306.347 660.56H363.787ZM411.487 338.793C381.859 356.949 356.95 381.859 338.794 411.486L387.77 441.498C401.189 419.6 419.6 401.189 441.499 387.769L411.487 338.793ZM680.343 1027.79C672.569 1014.65 665.745 1003.06 659.109 993.953C652.117 984.365 644.102 975.729 632.984 969.262L604.105 1018.92C605.921 1019.97 608.394 1021.9 612.688 1027.79C617.336 1034.17 622.587 1042.98 630.913 1057.05L680.343 1027.79ZM556.275 1014.44C573.089 1014.73 583.739 1014.95 591.858 1015.84C599.444 1016.68 602.385 1017.91 604.105 1018.92L632.984 969.262C621.773 962.74 610.108 960.071 598.18 958.75C586.784 957.49 573.012 957.284 557.264 957.012L556.275 1014.44ZM805.087 1057.05C813.412 1042.98 818.662 1034.17 823.311 1027.79C827.604 1021.9 830.077 1019.97 831.893 1018.92L803.016 969.262C791.899 975.729 783.88 984.365 776.892 993.953C770.256 1003.06 763.432 1014.65 755.654 1027.79L805.087 1057.05ZM878.737 957.012C862.987 957.284 849.216 957.49 837.82 958.75C825.892 960.071 814.228 962.74 803.016 969.262L831.893 1018.92C833.616 1017.91 836.557 1016.68 844.143 1015.84C852.261 1014.95 862.91 1014.73 879.725 1014.44L878.737 957.012Z" fill="white"/>
</g>
<defs>
<clipPath id="clip0_38_94">
<rect width="1436" height="1436" fill="white"/>
</clipPath>
</defs>
</svg>
