<svg width="1436" height="1436" viewBox="0 0 1436 1436" fill="none" xmlns="http://www.w3.org/2000/svg">
<rect width="1436" height="1436" fill="black"/>
<rect x="303.5" y="357.938" width="829.562" height="829.562" stroke="white" stroke-width="5"/>
<rect x="303.5" y="247.5" width="829.562" height="940" stroke="white" stroke-width="5"/>
<path d="M348.983 290.5V328H344.442V290.5H348.983ZM365.121 301.584L353.598 313.913L347.152 320.603L346.786 315.793L351.4 310.275L359.604 301.584H365.121ZM360.995 328L351.571 315.402L353.915 311.374L366.317 328H360.995ZM380.258 328.488C378.419 328.488 376.75 328.179 375.253 327.561C373.772 326.926 372.494 326.039 371.42 324.899C370.362 323.76 369.548 322.409 368.979 320.847C368.409 319.284 368.124 317.575 368.124 315.72V314.694C368.124 312.546 368.441 310.633 369.076 308.957C369.711 307.264 370.574 305.832 371.664 304.66C372.755 303.488 373.992 302.601 375.375 301.999C376.758 301.397 378.191 301.096 379.672 301.096C381.56 301.096 383.188 301.421 384.555 302.072C385.938 302.723 387.069 303.635 387.948 304.807C388.827 305.962 389.478 307.329 389.901 308.908C390.325 310.471 390.536 312.18 390.536 314.035V316.062H370.81V312.375H386.02V312.033C385.954 310.861 385.71 309.722 385.287 308.615C384.88 307.508 384.229 306.597 383.334 305.881C382.439 305.165 381.218 304.807 379.672 304.807C378.646 304.807 377.702 305.026 376.84 305.466C375.977 305.889 375.237 306.524 374.618 307.37C374 308.216 373.52 309.25 373.178 310.471C372.836 311.691 372.665 313.099 372.665 314.694V315.72C372.665 316.973 372.836 318.153 373.178 319.26C373.536 320.35 374.049 321.311 374.716 322.141C375.399 322.971 376.221 323.622 377.182 324.094C378.158 324.566 379.265 324.802 380.502 324.802C382.097 324.802 383.448 324.476 384.555 323.825C385.661 323.174 386.63 322.303 387.46 321.213L390.194 323.386C389.625 324.248 388.9 325.07 388.021 325.852C387.143 326.633 386.06 327.268 384.774 327.756C383.505 328.244 381.999 328.488 380.258 328.488ZM402.89 325.266L410.238 301.584H415.072L404.477 332.077C404.232 332.728 403.907 333.428 403.5 334.177C403.109 334.942 402.605 335.666 401.986 336.35C401.368 337.033 400.619 337.587 399.74 338.01C398.878 338.449 397.844 338.669 396.64 338.669C396.282 338.669 395.826 338.62 395.272 338.522C394.719 338.425 394.328 338.343 394.101 338.278L394.076 334.616C394.206 334.632 394.41 334.649 394.687 334.665C394.979 334.698 395.183 334.714 395.297 334.714C396.322 334.714 397.193 334.576 397.909 334.299C398.625 334.038 399.228 333.591 399.716 332.956C400.22 332.338 400.652 331.483 401.01 330.393L402.89 325.266ZM397.494 301.584L404.354 322.092L405.526 326.853L402.279 328.513L392.562 301.584H397.494ZM419.125 290.5H423.666V322.873L423.275 328H419.125V290.5ZM441.513 314.572V315.085C441.513 317.006 441.285 318.788 440.829 320.432C440.373 322.059 439.706 323.475 438.827 324.68C437.948 325.884 436.874 326.82 435.604 327.487C434.335 328.155 432.878 328.488 431.234 328.488C429.558 328.488 428.085 328.203 426.815 327.634C425.562 327.048 424.504 326.21 423.642 325.119C422.779 324.029 422.087 322.71 421.566 321.164C421.062 319.618 420.712 317.876 420.517 315.939V313.693C420.712 311.74 421.062 309.991 421.566 308.444C422.087 306.898 422.779 305.58 423.642 304.489C424.504 303.382 425.562 302.544 426.815 301.975C428.069 301.389 429.525 301.096 431.186 301.096C432.846 301.096 434.319 301.421 435.604 302.072C436.89 302.707 437.965 303.618 438.827 304.807C439.706 305.995 440.373 307.419 440.829 309.079C441.285 310.723 441.513 312.554 441.513 314.572ZM436.972 315.085V314.572C436.972 313.254 436.85 312.017 436.605 310.861C436.361 309.689 435.971 308.664 435.434 307.785C434.896 306.89 434.188 306.19 433.31 305.686C432.431 305.165 431.348 304.904 430.062 304.904C428.923 304.904 427.93 305.1 427.084 305.49C426.254 305.881 425.546 306.41 424.96 307.077C424.374 307.728 423.894 308.477 423.52 309.323C423.161 310.153 422.893 311.016 422.714 311.911V317.795C422.974 318.934 423.397 320.033 423.983 321.091C424.586 322.132 425.383 322.987 426.376 323.654C427.385 324.322 428.63 324.655 430.111 324.655C431.332 324.655 432.374 324.411 433.236 323.923C434.115 323.418 434.823 322.727 435.36 321.848C435.914 320.969 436.321 319.951 436.581 318.796C436.841 317.64 436.972 316.403 436.972 315.085ZM446.029 315.085V314.523C446.029 312.619 446.306 310.853 446.859 309.226C447.413 307.582 448.21 306.158 449.252 304.953C450.294 303.732 451.555 302.788 453.036 302.121C454.517 301.438 456.177 301.096 458.017 301.096C459.872 301.096 461.54 301.438 463.021 302.121C464.519 302.788 465.788 303.732 466.83 304.953C467.888 306.158 468.694 307.582 469.247 309.226C469.8 310.853 470.077 312.619 470.077 314.523V315.085C470.077 316.989 469.8 318.755 469.247 320.383C468.694 322.01 467.888 323.435 466.83 324.655C465.788 325.86 464.527 326.804 463.046 327.487C461.581 328.155 459.921 328.488 458.065 328.488C456.21 328.488 454.542 328.155 453.061 327.487C451.579 326.804 450.31 325.86 449.252 324.655C448.21 323.435 447.413 322.01 446.859 320.383C446.306 318.755 446.029 316.989 446.029 315.085ZM450.546 314.523V315.085C450.546 316.403 450.701 317.648 451.01 318.82C451.319 319.976 451.783 321.001 452.401 321.896C453.036 322.792 453.826 323.5 454.77 324.021C455.714 324.525 456.812 324.777 458.065 324.777C459.302 324.777 460.385 324.525 461.312 324.021C462.257 323.5 463.038 322.792 463.656 321.896C464.275 321.001 464.739 319.976 465.048 318.82C465.373 317.648 465.536 316.403 465.536 315.085V314.523C465.536 313.221 465.373 311.993 465.048 310.837C464.739 309.665 464.267 308.632 463.632 307.736C463.013 306.825 462.232 306.109 461.288 305.588C460.36 305.067 459.27 304.807 458.017 304.807C456.78 304.807 455.689 305.067 454.745 305.588C453.817 306.109 453.036 306.825 452.401 307.736C451.783 308.632 451.319 309.665 451.01 310.837C450.701 311.993 450.546 313.221 450.546 314.523ZM491.317 323.483V309.885C491.317 308.843 491.106 307.94 490.683 307.175C490.276 306.394 489.657 305.791 488.827 305.368C487.997 304.945 486.972 304.733 485.751 304.733C484.612 304.733 483.611 304.929 482.748 305.319C481.902 305.71 481.234 306.223 480.746 306.857C480.274 307.492 480.038 308.176 480.038 308.908H475.521C475.521 307.964 475.766 307.028 476.254 306.101C476.742 305.173 477.442 304.335 478.354 303.586C479.281 302.821 480.388 302.219 481.674 301.779C482.976 301.324 484.424 301.096 486.02 301.096C487.94 301.096 489.633 301.421 491.098 302.072C492.579 302.723 493.734 303.708 494.564 305.026C495.411 306.328 495.834 307.964 495.834 309.934V322.238C495.834 323.117 495.907 324.053 496.054 325.046C496.216 326.039 496.452 326.893 496.762 327.609V328H492.05C491.822 327.479 491.643 326.787 491.513 325.925C491.382 325.046 491.317 324.232 491.317 323.483ZM492.099 311.984L492.147 315.158H487.582C486.296 315.158 485.149 315.264 484.14 315.476C483.131 315.671 482.284 315.972 481.601 316.379C480.917 316.786 480.396 317.299 480.038 317.917C479.68 318.519 479.501 319.227 479.501 320.041C479.501 320.871 479.688 321.628 480.062 322.312C480.437 322.995 480.998 323.54 481.747 323.947C482.512 324.338 483.448 324.533 484.555 324.533C485.938 324.533 487.159 324.24 488.217 323.654C489.275 323.068 490.113 322.352 490.731 321.506C491.366 320.66 491.708 319.838 491.757 319.04L493.686 321.213C493.572 321.896 493.262 322.653 492.758 323.483C492.253 324.313 491.578 325.111 490.731 325.876C489.901 326.625 488.909 327.251 487.753 327.756C486.614 328.244 485.328 328.488 483.896 328.488C482.105 328.488 480.535 328.138 479.184 327.438C477.849 326.739 476.807 325.803 476.059 324.631C475.326 323.443 474.96 322.116 474.96 320.651C474.96 319.235 475.237 317.99 475.79 316.916C476.343 315.826 477.141 314.922 478.183 314.206C479.224 313.474 480.478 312.92 481.942 312.546C483.407 312.172 485.043 311.984 486.85 311.984H492.099ZM507.455 305.734V328H502.938V301.584H507.333L507.455 305.734ZM515.707 301.438L515.683 305.637C515.308 305.555 514.95 305.507 514.608 305.49C514.283 305.458 513.909 305.441 513.485 305.441C512.444 305.441 511.524 305.604 510.727 305.93C509.929 306.255 509.254 306.711 508.7 307.297C508.147 307.883 507.707 308.583 507.382 309.396C507.073 310.194 506.869 311.073 506.771 312.033L505.502 312.766C505.502 311.171 505.657 309.673 505.966 308.273C506.291 306.874 506.788 305.637 507.455 304.562C508.122 303.472 508.969 302.626 509.994 302.023C511.036 301.405 512.273 301.096 513.705 301.096C514.031 301.096 514.405 301.136 514.828 301.218C515.251 301.283 515.544 301.356 515.707 301.438ZM536.044 322.873V290.5H540.585V328H536.435L536.044 322.873ZM518.271 315.085V314.572C518.271 312.554 518.515 310.723 519.003 309.079C519.507 307.419 520.215 305.995 521.127 304.807C522.055 303.618 523.153 302.707 524.423 302.072C525.709 301.421 527.141 301.096 528.72 301.096C530.38 301.096 531.828 301.389 533.065 301.975C534.319 302.544 535.377 303.382 536.239 304.489C537.118 305.58 537.81 306.898 538.314 308.444C538.819 309.991 539.169 311.74 539.364 313.693V315.939C539.185 317.876 538.835 319.618 538.314 321.164C537.81 322.71 537.118 324.029 536.239 325.119C535.377 326.21 534.319 327.048 533.065 327.634C531.812 328.203 530.347 328.488 528.671 328.488C527.125 328.488 525.709 328.155 524.423 327.487C523.153 326.82 522.055 325.884 521.127 324.68C520.215 323.475 519.507 322.059 519.003 320.432C518.515 318.788 518.271 317.006 518.271 315.085ZM522.812 314.572V315.085C522.812 316.403 522.942 317.64 523.202 318.796C523.479 319.951 523.902 320.969 524.472 321.848C525.041 322.727 525.766 323.418 526.645 323.923C527.523 324.411 528.573 324.655 529.794 324.655C531.291 324.655 532.52 324.338 533.48 323.703C534.457 323.068 535.238 322.23 535.824 321.188C536.41 320.147 536.866 319.016 537.191 317.795V311.911C536.996 311.016 536.711 310.153 536.337 309.323C535.979 308.477 535.507 307.728 534.921 307.077C534.351 306.41 533.643 305.881 532.797 305.49C531.967 305.1 530.982 304.904 529.843 304.904C528.606 304.904 527.54 305.165 526.645 305.686C525.766 306.19 525.041 306.89 524.472 307.785C523.902 308.664 523.479 309.689 523.202 310.861C522.942 312.017 522.812 313.254 522.812 314.572ZM581.845 307.395V312.814C581.845 315.728 581.584 318.186 581.063 320.188C580.543 322.189 579.794 323.801 578.817 325.021C577.841 326.242 576.661 327.129 575.277 327.683C573.91 328.22 572.364 328.488 570.639 328.488C569.271 328.488 568.01 328.317 566.854 327.976C565.699 327.634 564.657 327.089 563.729 326.34C562.818 325.575 562.037 324.582 561.386 323.361C560.735 322.141 560.238 320.66 559.896 318.918C559.555 317.176 559.384 315.142 559.384 312.814V307.395C559.384 304.481 559.644 302.04 560.165 300.07C560.702 298.101 561.459 296.522 562.436 295.334C563.412 294.13 564.584 293.267 565.951 292.746C567.335 292.225 568.881 291.965 570.59 291.965C571.973 291.965 573.243 292.136 574.398 292.478C575.57 292.803 576.612 293.332 577.523 294.064C578.435 294.781 579.208 295.741 579.843 296.945C580.494 298.133 580.99 299.59 581.332 301.315C581.674 303.041 581.845 305.067 581.845 307.395ZM577.304 313.547V306.638C577.304 305.043 577.206 303.643 577.011 302.438C576.832 301.218 576.563 300.176 576.205 299.313C575.847 298.451 575.391 297.751 574.838 297.214C574.301 296.677 573.674 296.286 572.958 296.042C572.258 295.782 571.469 295.651 570.59 295.651C569.516 295.651 568.563 295.855 567.733 296.262C566.903 296.652 566.203 297.279 565.634 298.142C565.08 299.004 564.657 300.135 564.364 301.535C564.071 302.935 563.925 304.636 563.925 306.638V313.547C563.925 315.142 564.014 316.55 564.193 317.771C564.389 318.991 564.674 320.049 565.048 320.944C565.422 321.823 565.878 322.548 566.415 323.117C566.952 323.687 567.571 324.11 568.271 324.387C568.987 324.647 569.776 324.777 570.639 324.777C571.745 324.777 572.714 324.566 573.544 324.143C574.374 323.719 575.066 323.06 575.619 322.165C576.189 321.254 576.612 320.09 576.889 318.674C577.165 317.242 577.304 315.533 577.304 313.547ZM588.217 325.607C588.217 324.842 588.453 324.2 588.925 323.679C589.413 323.142 590.113 322.873 591.024 322.873C591.936 322.873 592.628 323.142 593.1 323.679C593.588 324.2 593.832 324.842 593.832 325.607C593.832 326.356 593.588 326.991 593.1 327.512C592.628 328.033 591.936 328.293 591.024 328.293C590.113 328.293 589.413 328.033 588.925 327.512C588.453 326.991 588.217 326.356 588.217 325.607ZM623.251 318.381C623.251 320.546 622.746 322.385 621.737 323.898C620.744 325.396 619.394 326.535 617.685 327.316C615.992 328.098 614.079 328.488 611.947 328.488C609.815 328.488 607.895 328.098 606.186 327.316C604.477 326.535 603.126 325.396 602.133 323.898C601.14 322.385 600.644 320.546 600.644 318.381C600.644 316.965 600.912 315.671 601.449 314.499C602.003 313.311 602.776 312.277 603.769 311.398C604.778 310.52 605.966 309.844 607.333 309.372C608.716 308.884 610.238 308.64 611.898 308.64C614.079 308.64 616.024 309.063 617.733 309.909C619.442 310.739 620.785 311.887 621.762 313.352C622.755 314.816 623.251 316.493 623.251 318.381ZM618.71 318.283C618.71 316.965 618.425 315.801 617.855 314.792C617.286 313.767 616.488 312.969 615.463 312.399C614.438 311.83 613.249 311.545 611.898 311.545C610.515 311.545 609.319 311.83 608.31 312.399C607.317 312.969 606.544 313.767 605.99 314.792C605.437 315.801 605.16 316.965 605.16 318.283C605.16 319.65 605.429 320.822 605.966 321.799C606.519 322.759 607.3 323.5 608.31 324.021C609.335 324.525 610.548 324.777 611.947 324.777C613.347 324.777 614.551 324.525 615.561 324.021C616.57 323.5 617.343 322.759 617.88 321.799C618.433 320.822 618.71 319.65 618.71 318.283ZM622.421 301.706C622.421 303.431 621.965 304.986 621.054 306.369C620.142 307.753 618.897 308.843 617.318 309.641C615.74 310.438 613.949 310.837 611.947 310.837C609.913 310.837 608.098 310.438 606.503 309.641C604.924 308.843 603.687 307.753 602.792 306.369C601.897 304.986 601.449 303.431 601.449 301.706C601.449 299.639 601.897 297.881 602.792 296.433C603.703 294.984 604.949 293.877 606.527 293.112C608.106 292.347 609.905 291.965 611.923 291.965C613.957 291.965 615.764 292.347 617.343 293.112C618.922 293.877 620.159 294.984 621.054 296.433C621.965 297.881 622.421 299.639 622.421 301.706ZM617.904 301.779C617.904 300.591 617.652 299.541 617.147 298.63C616.643 297.718 615.943 297.002 615.048 296.481C614.153 295.944 613.111 295.676 611.923 295.676C610.735 295.676 609.693 295.928 608.798 296.433C607.919 296.921 607.227 297.621 606.723 298.532C606.234 299.444 605.99 300.526 605.99 301.779C605.99 303 606.234 304.066 606.723 304.978C607.227 305.889 607.927 306.597 608.822 307.102C609.717 307.606 610.759 307.858 611.947 307.858C613.135 307.858 614.169 307.606 615.048 307.102C615.943 306.597 616.643 305.889 617.147 304.978C617.652 304.066 617.904 303 617.904 301.779ZM633.456 324.216H633.92C636.524 324.216 638.64 323.85 640.268 323.117C641.895 322.385 643.148 321.4 644.027 320.163C644.906 318.926 645.508 317.535 645.834 315.988C646.16 314.426 646.322 312.823 646.322 311.179V305.734C646.322 304.123 646.135 302.691 645.761 301.438C645.403 300.184 644.898 299.134 644.247 298.288C643.612 297.442 642.888 296.799 642.074 296.359C641.26 295.92 640.398 295.7 639.486 295.7C638.445 295.7 637.509 295.912 636.679 296.335C635.865 296.742 635.173 297.32 634.604 298.068C634.05 298.817 633.627 299.696 633.334 300.705C633.041 301.714 632.895 302.813 632.895 304.001C632.895 305.059 633.025 306.084 633.285 307.077C633.546 308.07 633.944 308.965 634.481 309.763C635.019 310.56 635.686 311.195 636.483 311.667C637.297 312.123 638.249 312.351 639.34 312.351C640.349 312.351 641.293 312.155 642.172 311.765C643.067 311.358 643.856 310.812 644.54 310.129C645.24 309.429 645.793 308.64 646.2 307.761C646.623 306.882 646.868 305.962 646.933 305.002H649.081C649.081 306.353 648.812 307.688 648.275 309.006C647.755 310.308 647.022 311.496 646.078 312.57C645.134 313.645 644.027 314.507 642.758 315.158C641.488 315.793 640.105 316.11 638.607 316.11C636.85 316.11 635.328 315.769 634.042 315.085C632.756 314.401 631.698 313.49 630.868 312.351C630.054 311.211 629.444 309.942 629.037 308.542C628.646 307.126 628.451 305.694 628.451 304.245C628.451 302.552 628.687 300.965 629.159 299.484C629.631 298.003 630.331 296.701 631.259 295.578C632.187 294.439 633.334 293.552 634.701 292.917C636.085 292.282 637.68 291.965 639.486 291.965C641.521 291.965 643.254 292.372 644.687 293.186C646.119 293.999 647.283 295.09 648.178 296.457C649.089 297.824 649.757 299.362 650.18 301.071C650.603 302.78 650.814 304.538 650.814 306.345V307.98C650.814 309.82 650.692 311.691 650.448 313.596C650.22 315.484 649.773 317.29 649.105 319.016C648.454 320.741 647.502 322.287 646.249 323.654C644.996 325.005 643.36 326.079 641.342 326.877C639.34 327.658 636.866 328.049 633.92 328.049H633.456V324.216Z" fill="white"/>
<path fill-rule="evenodd" clip-rule="evenodd" d="M620.714 603H815C883.69 603 918.035 603 939.374 624.339C960.714 645.679 960.714 680.024 960.714 748.714V797.286C960.714 865.975 960.714 900.32 939.374 921.66C918.035 943 883.69 943 815 943H620.714C552.024 943 517.679 943 496.339 921.66C475 900.32 475 865.975 475 797.286V748.714C475 680.024 475 645.679 496.339 624.339C517.679 603 552.024 603 620.714 603ZM572.143 724.429C585.555 724.429 596.429 713.555 596.429 700.143C596.429 686.73 585.555 675.857 572.143 675.857C558.73 675.857 547.857 686.73 547.857 700.143C547.857 713.555 558.73 724.429 572.143 724.429ZM572.143 797.286C585.555 797.286 596.429 786.413 596.429 773C596.429 759.587 585.555 748.714 572.143 748.714C558.73 748.714 547.857 759.587 547.857 773C547.857 786.413 558.73 797.286 572.143 797.286ZM645 797.286C658.413 797.286 669.286 786.413 669.286 773C669.286 759.587 658.413 748.714 645 748.714C631.587 748.714 620.714 759.587 620.714 773C620.714 786.413 631.587 797.286 645 797.286ZM645 724.429C658.413 724.429 669.286 713.555 669.286 700.143C669.286 686.73 658.413 675.857 645 675.857C631.587 675.857 620.714 686.73 620.714 700.143C620.714 713.555 631.587 724.429 645 724.429ZM717.857 724.429C731.27 724.429 742.143 713.555 742.143 700.143C742.143 686.73 731.27 675.857 717.857 675.857C704.444 675.857 693.571 686.73 693.571 700.143C693.571 713.555 704.444 724.429 717.857 724.429ZM717.857 797.286C731.27 797.286 742.143 786.413 742.143 773C742.143 759.587 731.27 748.714 717.857 748.714C704.444 748.714 693.571 759.587 693.571 773C693.571 786.413 704.444 797.286 717.857 797.286ZM790.714 724.429C804.127 724.429 815 713.555 815 700.143C815 686.73 804.127 675.857 790.714 675.857C777.301 675.857 766.429 686.73 766.429 700.143C766.429 713.555 777.301 724.429 790.714 724.429ZM790.714 797.286C804.127 797.286 815 786.413 815 773C815 759.587 804.127 748.714 790.714 748.714C777.301 748.714 766.429 759.587 766.429 773C766.429 786.413 777.301 797.286 790.714 797.286ZM863.571 724.429C876.984 724.429 887.857 713.555 887.857 700.143C887.857 686.73 876.984 675.857 863.571 675.857C850.158 675.857 839.286 686.73 839.286 700.143C839.286 713.555 850.158 724.429 863.571 724.429ZM863.571 797.286C876.984 797.286 887.857 786.413 887.857 773C887.857 759.587 876.984 748.714 863.571 748.714C850.158 748.714 839.286 759.587 839.286 773C839.286 786.413 850.158 797.286 863.571 797.286ZM857.5 870.143C857.5 880.202 849.345 888.357 839.286 888.357H596.429C586.369 888.357 578.214 880.202 578.214 870.143C578.214 860.084 586.369 851.929 596.429 851.929H839.286C849.345 851.929 857.5 860.084 857.5 870.143Z" fill="white"/>
</svg>
