<svg width="1436" height="1436" viewBox="0 0 1436 1436" fill="none" xmlns="http://www.w3.org/2000/svg">
<g clip-path="url(#clip0_38_105)">
<rect width="1436" height="1436" fill="black"/>
<path d="M996.071 911.615C1012.95 921.211 1027.75 934.059 1039.62 949.415C1051.5 964.771 1060.21 982.33 1065.25 1001.07C1083.26 1065.49 1138.31 1233.22 1138.31 1233.22C1138.31 1233.22 1169.77 1270.24 1173.13 1297.64C1176.48 1325.03 1169.77 1391.35 1159.63 1403.72C1156.7 1407.31 1152.93 1410.13 1148.65 1411.93C1144.38 1413.73 1139.73 1414.46 1135.11 1414.05L1002.67 1401.48L950.483 1052.29L996.071 911.615Z" fill="black"/>
<path d="M558.163 905.539C558.163 905.539 463.447 935.359 439.852 961.079L517.384 1321.75L516.005 1435.59H965.096C965.096 1429.96 969.121 1057.7 969.121 1057.7L996.071 911.615L836.571 883.546L805.111 858.796L627.569 867.816L600.582 894.766L558.163 905.539Z" fill="black"/>
<g opacity="0.3">
<path d="M594.283 1218.46C592.904 1215.41 590.891 1212.09 587.61 1211.42C582.206 1210.3 578.59 1216.67 576.763 1221.89C562.444 1262.78 542.604 1301.52 517.794 1337.04L516.639 1392.43C542.731 1370.4 568.6 1346.8 585.299 1316.94C601.999 1287.09 608.224 1249.63 594.283 1218.46Z" fill="black"/>
</g>
<path d="M439.851 961.079C439.851 961.079 408.652 1003.61 395.717 1031.38C382.783 1059.15 275.393 1292.31 268.982 1316.42C262.57 1340.54 245.871 1416.36 294.888 1433.95H395.792L497.031 1229.2L502.212 991.57L439.851 961.079Z" fill="black"/>
<path d="M402.166 1286.04C402.166 1286.04 399.929 1284.07 395.27 1281.42C388.62 1277.85 381.488 1275.27 374.098 1273.74C369.017 1272.63 363.858 1271.91 358.666 1271.58C352.684 1271.13 346.669 1271.56 340.811 1272.85C327.551 1276.25 315.682 1283.71 306.853 1294.17C297.877 1304.52 291.308 1316.72 287.619 1329.92C284.575 1340.7 282.553 1351.74 281.581 1362.9C280.612 1372.45 280.276 1380.24 279.941 1385.57C279.941 1388.1 279.643 1390.15 279.568 1391.76C279.57 1392.49 279.47 1393.21 279.27 1393.92C279.222 1393.2 279.222 1392.48 279.27 1391.76C279.27 1390.12 279.27 1388.03 279.27 1385.57C279.27 1380.16 279.493 1372.41 280.276 1362.79C281.064 1351.45 282.975 1340.21 285.979 1329.25C289.642 1315.76 296.306 1303.27 305.474 1292.72C314.578 1281.96 326.837 1274.34 340.513 1270.95C346.492 1269.7 352.624 1269.36 358.703 1269.94C363.966 1270.33 369.189 1271.14 374.321 1272.36C381.795 1274.02 388.963 1276.84 395.568 1280.71C397.347 1281.81 399.031 1283.06 400.601 1284.44C401.178 1284.92 401.702 1285.46 402.166 1286.04Z" fill="#263238"/>
<path d="M354.342 1245.26C355.445 1244.94 356.586 1244.77 357.734 1244.74C360.848 1244.5 363.976 1244.5 367.09 1244.74C371.727 1245.01 376.33 1245.7 380.845 1246.79C391.952 1249.48 402.376 1254.46 411.448 1261.4C415.143 1264.22 418.575 1267.36 421.699 1270.8C423.816 1273.13 425.748 1275.62 427.476 1278.25C428.18 1279.17 428.757 1280.17 429.191 1281.24C428.893 1281.46 426.134 1277.51 420.692 1271.84C417.477 1268.62 414.025 1265.64 410.367 1262.93C405.862 1259.65 401.071 1256.78 396.053 1254.36C391.007 1252.01 385.769 1250.09 380.398 1248.62C375.992 1247.48 371.506 1246.69 366.979 1246.23C359.225 1245.23 354.342 1245.64 354.342 1245.26Z" fill="#263238"/>
<path d="M445.516 1234.04C443.955 1234.11 442.392 1234 440.856 1233.71C437.874 1233.34 433.588 1232.89 428.22 1232.48C400.343 1230.4 372.328 1233.76 345.73 1242.36C340.624 1244 336.523 1245.45 333.728 1246.53C332.301 1247.16 330.815 1247.65 329.292 1247.99C330.575 1247.09 331.965 1246.37 333.429 1245.82C336.151 1244.52 340.214 1242.88 345.283 1241.05C371.901 1231.63 400.281 1228.24 428.369 1231.14C433.7 1231.7 438.024 1232.33 440.968 1232.96C442.515 1233.18 444.038 1233.54 445.516 1234.04Z" fill="#263238"/>
<path d="M732.871 1034.81C732.462 1034.45 732.11 1034.04 731.827 1033.58L729.069 1029.85L718.93 1015.84C710.245 1003.54 698.093 986.389 683.817 966.26L685.382 966.037C679.94 981.99 673.939 999.584 667.639 1018.22L667.229 1019.38L666.186 1018.71L664.098 1017.36C655.977 1012.17 648.592 1005.9 642.143 998.727C636.183 992.052 630.925 984.782 626.45 977.033C619.003 963.919 613.206 949.934 609.192 935.396C606.497 925.577 604.32 915.624 602.669 905.576C602.072 902.221 601.625 899.5 601.252 897.45C601.147 896.755 600.985 896.069 600.768 895.4C600.768 894.953 600.507 894.729 600.544 894.692C600.581 894.655 602.073 898.419 603.414 905.464C604.756 912.509 606.881 922.648 610.534 934.912C614.662 949.314 620.533 963.159 628.016 976.138C632.478 983.743 637.685 990.885 643.56 997.459C649.897 1004.46 657.143 1010.58 665.105 1015.65L667.155 1016.99L665.738 1017.51C672.113 998.876 678.151 981.394 683.668 965.328L684.227 963.688L685.233 965.105C699.249 985.42 711.326 1002.72 719.787 1015.09C723.85 1021.13 727.242 1025.94 729.516 1029.44L732.014 1033.17C732.356 1033.68 732.644 1034.23 732.871 1034.81Z" fill="#263238"/>
<g opacity="0.3">
<path d="M849.729 1206.98C845.708 1249.04 854.824 1291.31 875.821 1327.98C896.695 1364.28 927.336 1396.68 965.468 1414.05C966.698 1377.03 964.909 1333.42 966.139 1296.41L849.729 1206.98Z" fill="black"/>
</g>
<path d="M845.517 1158.26C845.517 1158.26 829.19 1162.77 841.416 1196.21C853.643 1229.65 857.743 1227.6 865.906 1258.83C874.07 1290.07 883.575 1318.47 897.814 1336.29C912.053 1354.11 965.095 1389.97 965.095 1389.97L1012.66 1345.24C1012.66 1345.24 1004.83 1311.69 1006.69 1289.1C1008.56 1266.51 1013.33 1210.82 1012.66 1201.17C1011.99 1191.51 1001.77 1168.55 1001.77 1168.55V1152.75L977.322 1077.53C977.322 1077.53 963.716 1071.41 958.982 1093.14L950.819 1070.07C950.819 1070.07 937.922 1068.02 934.53 1094.52C931.138 1121.03 937.251 1157.7 937.251 1157.7L930.43 1203.89L920.253 1235.16L911.419 1236.5C911.419 1236.5 898.112 1232.78 890.843 1207.84C883.575 1182.9 863.856 1152.82 845.517 1158.26Z" fill="#FFBE9D"/>
<path d="M996.854 1276.58C996.854 1276.58 996.854 1276.02 996.631 1274.9C996.407 1273.78 996.407 1271.95 996.295 1269.9C996.034 1265.36 995.699 1259.06 995.289 1251.27C994.543 1235.05 993.537 1212.46 992.344 1186.11L992.531 1186.67C991.313 1185.41 989.773 1184.5 988.077 1184.05C986.381 1183.61 984.595 1183.64 982.914 1184.13C981.09 1184.58 979.373 1185.38 977.862 1186.49C976.352 1187.6 975.079 1189.01 974.117 1190.62C969.942 1197.29 969.718 1206.01 968.413 1214.4C965.841 1233.45 963.381 1251.68 961.145 1268.11C960.027 1276.39 958.834 1284.22 957.231 1291.49C955.722 1298.23 953.741 1304.85 951.304 1311.32C949.217 1317.24 947.353 1322.5 946.198 1327.46C945.167 1331.54 944.653 1335.73 944.669 1339.94C944.801 1343.57 945.428 1347.15 946.533 1350.6C946.086 1349.77 945.712 1348.9 945.415 1347.99C944.53 1345.41 944.028 1342.71 943.924 1339.98C943.746 1335.66 944.16 1331.33 945.154 1327.12C946.461 1321.59 948.091 1316.14 950.037 1310.79C952.341 1304.35 954.209 1297.77 955.628 1291.08C957.156 1283.88 958.312 1276.17 959.356 1267.82C961.518 1251.27 963.94 1233.15 966.475 1214.07C967.072 1209.85 967.519 1205.64 968.264 1201.47C968.875 1197.25 970.293 1193.18 972.439 1189.5C973.549 1187.69 975.006 1186.12 976.727 1184.88C978.449 1183.64 980.399 1182.75 982.466 1182.27C984.475 1181.67 986.614 1181.64 988.637 1182.19C990.661 1182.75 992.488 1183.86 993.91 1185.4L994.096 1185.66V1185.96C995.028 1212.31 995.811 1234.9 996.37 1251.15C996.37 1259.02 996.705 1265.32 996.854 1269.79C996.854 1271.84 996.854 1273.52 996.854 1274.79C996.918 1275.38 996.918 1275.98 996.854 1276.58Z" fill="#EB996E"/>
<path d="M970.761 1190.84C969.914 1189.52 969.237 1188.09 968.748 1186.59C967.191 1182.62 965.86 1178.56 964.76 1174.44C963.161 1168.32 962.027 1162.09 961.368 1155.8C960.908 1152.09 960.833 1148.35 961.144 1144.62C961.49 1140.46 962.902 1136.45 965.244 1132.99C967.335 1129.89 970.407 1127.58 973.967 1126.43L974.675 1126.25L975.048 1126.88C981.944 1139.03 987.945 1149.77 992.12 1157.48L997.003 1166.61C997.671 1167.68 998.198 1168.84 998.568 1170.04C997.735 1169.1 997.01 1168.06 996.407 1166.95L991.039 1158.12C986.566 1150.66 980.341 1139.96 973.408 1127.85L974.489 1128.3C971.37 1129.34 968.684 1131.38 966.847 1134.11C964.701 1137.31 963.417 1141.01 963.12 1144.85C962.746 1148.49 962.746 1152.16 963.12 1155.8C963.681 1162.08 964.665 1168.3 966.065 1174.44C967.257 1179.66 968.562 1183.84 969.419 1186.71C970.003 1188.04 970.452 1189.42 970.761 1190.84Z" fill="#EB996E"/>
<path d="M959.354 1196.96C959.023 1195.53 958.872 1194.06 958.907 1192.59C958.907 1189.39 958.609 1185.44 958.423 1180.78C958.124 1170.79 957.789 1157 957.603 1141.75C957.046 1128.72 957.245 1115.66 958.199 1102.65C958.666 1098.7 959.514 1094.8 960.734 1091.02C961.095 1089.59 961.687 1088.23 962.486 1086.99C961.117 1092.18 960.133 1097.46 959.541 1102.8C958.609 1112.68 959.541 1126.47 959.541 1141.71C959.541 1156.96 959.839 1170.75 959.802 1180.74C959.802 1185.44 959.802 1189.39 959.802 1192.59C959.813 1194.06 959.663 1195.52 959.354 1196.96Z" fill="#EB996E"/>
<path d="M919.136 1322.24C918.875 1322.01 921.857 1318.51 925.51 1312.13C927.651 1308.42 929.508 1304.54 931.064 1300.54C932.893 1295.62 934.314 1290.56 935.313 1285.41C936.184 1280.24 936.62 1275 936.618 1269.75C936.561 1265.47 936.187 1261.2 935.499 1256.97C934.269 1249.7 932.704 1245.38 933.039 1245.26C933.627 1246.17 934.079 1247.17 934.381 1248.21C935.433 1250.97 936.256 1253.81 936.841 1256.71C937.754 1260.99 938.278 1265.34 938.407 1269.72C938.734 1280.5 936.791 1291.23 932.704 1301.21C931.057 1305.26 929.048 1309.15 926.702 1312.84C925.149 1315.34 923.391 1317.71 921.447 1319.93C920.067 1321.49 919.247 1322.31 919.136 1322.24Z" fill="#EB996E"/>
<path d="M1002.63 1298.94L1043.89 1313.25C1043.89 1313.25 1083.33 1292.87 1110.51 1313.25C1137.68 1333.64 1161.27 1387.36 1153.82 1409.09C1153.82 1409.09 1135.18 1432.27 1120.79 1435.67C1106.4 1439.06 1051.05 1425.6 1027.98 1420.76C1004.9 1415.91 965.095 1390.04 965.095 1390.04L1002.63 1298.94Z" fill="#FFBE9D"/>
<path d="M1007.7 1359.66C1007.41 1358.44 1007.26 1357.19 1007.25 1355.93C1007.25 1353.14 1006.92 1349.82 1006.69 1345.95C1006.25 1337.52 1005.69 1325.89 1005.5 1312.99C1005.32 1300.1 1005.69 1288.43 1006.43 1280.01C1006.81 1275.79 1007.29 1272.55 1007.7 1270.05C1007.79 1268.77 1008.08 1267.52 1008.56 1266.33C1008.86 1266.33 1008.22 1271.54 1007.81 1279.97C1007.4 1288.39 1007.25 1299.98 1007.44 1312.84C1007.63 1325.7 1007.89 1336.81 1008.04 1345.76C1008.04 1349.97 1008.04 1353.4 1008.04 1355.75C1008.14 1357.06 1008.02 1358.38 1007.7 1359.66Z" fill="#EB996E"/>
<path d="M1143.79 1311.54C1139.52 1307.1 1134.93 1302.96 1130.08 1299.16C1118.14 1290.23 1103.83 1285.03 1088.95 1284.22C1074.06 1283.4 1059.27 1287.01 1046.43 1294.58C1041.22 1297.83 1036.24 1301.43 1031.52 1305.35C1032.51 1303.98 1033.64 1302.73 1034.91 1301.62C1038.27 1298.51 1041.93 1295.74 1045.83 1293.35C1058.8 1285.27 1073.94 1281.4 1089.19 1282.24C1104.44 1283.09 1119.06 1288.62 1131.05 1298.08C1134.67 1300.87 1137.99 1304.03 1140.96 1307.51C1142.06 1308.74 1143.01 1310.09 1143.79 1311.54Z" fill="#263238"/>
<path d="M1138.5 1277.14C1133.17 1273.31 1127.4 1270.13 1121.32 1267.67C1106.36 1262.36 1090.12 1261.88 1074.87 1266.29C1066.49 1268.64 1058.41 1272 1050.83 1276.28C1044.66 1279.83 1038.83 1283.94 1033.42 1288.58C1028.8 1292.53 1025.26 1296.03 1022.84 1298.38C1021.65 1299.74 1020.34 1300.99 1018.92 1302.11C1019.89 1300.61 1021.02 1299.21 1022.28 1297.94C1025.5 1294.3 1028.92 1290.86 1032.53 1287.61C1037.88 1282.77 1043.72 1278.49 1049.93 1274.82C1057.6 1270.35 1065.8 1266.88 1074.35 1264.5C1089.97 1259.94 1106.65 1260.63 1121.84 1266.48C1126.37 1268.29 1130.65 1270.69 1134.55 1273.63C1135.93 1274.64 1136.86 1275.61 1137.57 1276.2C1138.28 1276.8 1138.5 1277.1 1138.5 1277.14Z" fill="#263238"/>
<path d="M1138.84 1247.31C1138.84 1247.69 1131.38 1245.49 1119.53 1243.88C1112.52 1242.94 1105.46 1242.5 1098.39 1242.54C1089.73 1242.64 1081.1 1243.41 1072.56 1244.85C1064.04 1246.42 1055.65 1248.64 1047.47 1251.49C1040.81 1253.86 1034.32 1256.7 1028.05 1259.99C1017.36 1265.58 1011.32 1270.13 1011.09 1269.79C1012.36 1268.56 1013.75 1267.46 1015.23 1266.51C1016.85 1265.23 1018.56 1264.06 1020.34 1263.01C1022.39 1261.7 1024.7 1260.17 1027.38 1258.76C1033.65 1255.29 1040.16 1252.3 1046.88 1249.81C1055.12 1246.81 1063.6 1244.51 1072.22 1242.95C1080.85 1241.49 1089.57 1240.76 1098.32 1240.75C1105.47 1240.79 1112.61 1241.37 1119.68 1242.51C1122.7 1242.88 1125.38 1243.59 1127.73 1244.07C1129.77 1244.48 1131.78 1245.01 1133.77 1245.64C1135.5 1246.05 1137.2 1246.61 1138.84 1247.31Z" fill="#263238"/>
<path d="M822.628 882.317C824.174 885.788 825.131 889.491 825.461 893.276C826.574 903.967 826.046 914.764 823.896 925.295C822.588 932.854 820.808 940.324 818.565 947.66C815.627 956.197 812.012 964.486 807.756 972.448C798.847 989.595 787.664 1008.27 774.693 1028.36L773.202 1030.71V1027.91C773.202 1014.72 773.202 1000.89 773.202 986.538L774.655 987.247L739.654 1015.17L739.952 1014.72C731.649 1041.93 726.546 1070.01 724.744 1098.4C721.315 1143.77 724.073 1187.15 726.198 1226.52C728.322 1265.88 729.254 1301.4 730.484 1331.22C731.714 1361.04 732.721 1385.12 733.615 1401.78C734.137 1410.06 734.51 1416.47 734.771 1420.94C734.771 1423.07 735.032 1424.67 735.106 1425.94C735.181 1427.21 735.106 1427.65 735.106 1427.65C735.106 1427.65 735.106 1427.09 734.845 1425.98C734.584 1424.86 734.547 1423.11 734.324 1420.98C733.914 1416.62 733.392 1410.17 732.833 1401.82C731.714 1385.2 730.41 1361.08 729.105 1331.26C727.8 1301.44 726.198 1265.99 724.408 1226.59C722.619 1187.19 719.376 1143.77 722.806 1098.25C724.69 1069.69 729.933 1041.45 738.424 1014.12V1013.86H738.648L773.537 985.868L774.991 984.675V986.538C774.991 1000.89 774.991 1014.72 774.991 1027.91L773.463 1027.43C799.071 987.731 819.907 953.214 823.113 925.295C825.327 914.864 826.005 904.165 825.126 893.537C824.821 890.745 824.311 887.979 823.598 885.262C822.852 883.249 822.628 882.317 822.628 882.317Z" fill="#263238"/>
<path d="M755.758 1363.13H754.566C751.851 1363.3 749.311 1364.52 747.483 1366.54C745.654 1368.55 744.68 1371.2 744.768 1373.92C744.855 1376.63 745.996 1379.21 747.95 1381.1C749.904 1383 752.517 1384.05 755.237 1384.05C757.956 1384.05 760.57 1383 762.523 1381.1C764.477 1379.21 765.618 1376.63 765.706 1373.92C765.793 1371.2 764.819 1368.55 762.99 1366.54C761.162 1364.52 758.622 1363.3 755.907 1363.13H755.758Z" fill="white"/>
<path d="M755.759 1219.47H754.566C751.862 1219.64 749.331 1220.86 747.509 1222.87C745.688 1224.88 744.718 1227.51 744.805 1230.22C744.892 1232.93 746.03 1235.5 747.976 1237.38C749.923 1239.27 752.527 1240.32 755.237 1240.32C757.947 1240.32 760.551 1239.27 762.497 1237.38C764.444 1235.5 765.581 1232.93 765.669 1230.22C765.756 1227.51 764.786 1224.88 762.964 1222.87C761.143 1220.86 758.612 1219.64 755.908 1219.47H755.759Z" fill="white"/>
<path d="M754.565 1090.95C757.348 1091.13 760.09 1090.2 762.187 1088.36C764.284 1086.52 765.565 1083.92 765.748 1081.14C765.931 1078.36 765.001 1075.62 763.162 1073.52C761.324 1071.42 758.727 1070.14 755.944 1069.96H754.565C751.777 1069.96 749.104 1071.07 747.132 1073.04C745.161 1075.01 744.054 1077.68 744.054 1080.47C744.054 1083.26 745.161 1085.93 747.132 1087.9C749.104 1089.88 751.777 1090.98 754.565 1090.98V1090.95Z" fill="white"/>
<path d="M593.424 713.982C580.378 699.482 567.332 684.87 557.677 667.872C548.023 650.875 542.469 631.007 545.6 611.959C547.464 600.777 552.235 589.967 553.055 578.412C554.099 562.756 547.539 546.392 553.055 531.743C561.703 508.782 592.604 505.241 611.316 489.399C625.891 477.061 632.973 457.044 649.001 446.681C663.017 437.586 681.021 437.81 697.459 440.121C713.897 442.432 730.597 446.644 747.147 444.408C758.926 442.842 770.034 438.071 781.552 435.201C793.07 432.331 806.004 431.473 816.255 437.586C826.506 443.699 832.321 458.125 825.574 467.928C844.733 459.094 869.074 474.041 874.33 494.468C879.586 514.895 869.074 536.999 852.822 550.381C836.57 563.763 815.547 570.137 794.859 574.051C736.188 585.233 672.485 578.859 621.902 547.101" fill="#263238"/>
<path d="M799.817 911.279C796.947 888.914 794.599 870.537 794.45 868.226C794.45 868.226 868.702 851.527 864.601 776.455C862.626 740.149 852.487 665.748 842.497 598.541C837.364 563.701 819.289 532.075 791.876 509.968C764.463 487.861 729.726 476.896 694.59 479.26L687.135 479.707C609.416 489.511 574.265 561.004 586.193 638.462L628.165 898.158C628.165 898.158 646.057 955.599 684.339 965.552L732.797 1034.59L740.773 1004.77L776.781 973.379C783.681 965.265 789.646 956.4 794.562 946.951C800.059 935.921 801.9 923.426 799.817 911.279Z" fill="#FFBE9D"/>
<path d="M794.487 867.183C794.487 867.183 747.334 874.191 694.813 845.899C694.813 845.899 721.576 898.345 795.978 886.603L794.487 867.183Z" fill="#EB996E"/>
<path d="M818.379 663.101C818.589 665.895 817.701 668.66 815.906 670.81C814.111 672.96 811.548 674.327 808.762 674.619C807.406 674.818 806.024 674.743 804.697 674.398C803.37 674.053 802.126 673.446 801.038 672.612C799.951 671.778 799.041 670.734 798.364 669.542C797.687 668.35 797.255 667.035 797.095 665.673C796.846 662.858 797.722 660.058 799.531 657.886C801.34 655.714 803.935 654.346 806.75 654.081C808.109 653.888 809.493 653.97 810.819 654.322C812.146 654.674 813.389 655.289 814.473 656.13C815.558 656.971 816.463 658.022 817.134 659.219C817.805 660.417 818.228 661.737 818.379 663.101Z" fill="#263238"/>
<path d="M828.855 636.486C827.625 637.977 819.089 632.497 807.571 633.317C796.053 634.138 788.113 640.437 786.622 639.17C785.989 638.611 787.182 636.001 790.685 633.057C795.433 629.261 801.242 627.034 807.31 626.682C813.313 626.247 819.297 627.749 824.382 630.969C828.11 633.355 829.452 635.815 828.855 636.486Z" fill="#263238"/>
<path d="M709.463 670.891C709.681 673.683 708.796 676.448 706.998 678.595C705.2 680.741 702.633 682.097 699.846 682.372C698.492 682.576 697.11 682.506 695.784 682.165C694.457 681.825 693.213 681.221 692.124 680.39C691.036 679.559 690.126 678.517 689.448 677.327C688.77 676.137 688.338 674.823 688.179 673.463C687.969 670.675 688.851 667.915 690.639 665.766C692.426 663.617 694.979 662.247 697.759 661.945C699.117 661.746 700.501 661.821 701.83 662.165C703.159 662.51 704.406 663.117 705.497 663.951C706.587 664.784 707.5 665.828 708.181 667.02C708.863 668.212 709.298 669.528 709.463 670.891Z" fill="#263238"/>
<path d="M715.688 646.216C714.42 647.707 705.922 642.228 694.404 643.048C682.886 643.868 674.797 650.167 673.455 648.825C672.784 648.266 673.977 645.657 677.481 642.712C682.246 638.922 688.065 636.696 694.143 636.338C700.133 635.908 706.104 637.41 711.177 640.625C714.905 643.085 716.284 645.545 715.688 646.216Z" fill="#263238"/>
<path d="M763.213 728.93C763.213 728.259 770.221 726.544 781.851 724.27C784.758 723.786 787.516 723.003 787.889 720.99C787.926 717.925 787.029 714.922 785.317 712.379L775.104 690.536C760.902 659.449 750.39 633.766 751.658 633.207C752.925 632.648 765.45 657.399 779.689 688.523L789.529 710.516C791.615 713.942 792.432 717.992 791.84 721.959C791.479 723.022 790.883 723.99 790.095 724.791C789.308 725.591 788.35 726.203 787.293 726.581C785.691 727.137 784.025 727.488 782.335 727.625C770.556 729.041 763.325 729.563 763.213 728.93Z" fill="#263238"/>
<path d="M715.612 600.813C714.68 604.056 703.088 603.311 689.52 605.846C675.951 608.38 665.402 612.816 663.427 610.132C662.532 608.828 664.247 605.771 668.459 602.416C674.101 598.322 680.597 595.558 687.459 594.331C694.321 593.105 701.372 593.448 708.083 595.334C713.338 597.011 716.022 599.322 715.612 600.813Z" fill="#263238"/>
<path d="M822.368 603.386C820.542 606.144 812.416 603.982 802.836 604.467C793.257 604.951 785.317 607.412 783.267 604.802C782.372 603.535 783.491 600.814 786.994 598.093C791.548 594.817 796.968 592.963 802.574 592.764C808.179 592.565 813.718 594.03 818.492 596.975C821.921 599.435 823.189 601.895 822.368 603.386Z" fill="#263238"/>
<path d="M596.22 693.815C594.915 693.368 543.662 682.036 548.731 733.215C553.801 784.394 609.192 767.694 609.192 766.241C609.192 764.787 596.22 693.815 596.22 693.815Z" fill="#FFBE9D"/>
<path d="M586.529 749.43C586.268 749.43 585.709 750.138 584.255 750.958C582.235 752.086 579.854 752.38 577.62 751.778C571.992 750.324 566.438 742.198 565.431 733.14C564.875 728.767 565.295 724.323 566.661 720.131C566.995 718.495 567.719 716.964 568.77 715.666C569.821 714.368 571.169 713.343 572.7 712.676C573.701 712.307 574.8 712.298 575.807 712.652C576.814 713.006 577.667 713.7 578.217 714.615C579.037 715.994 578.813 717.038 579.074 717.075C579.335 717.112 580.08 716.143 579.484 714.056C579.064 712.813 578.237 711.749 577.136 711.036C576.377 710.527 575.526 710.173 574.631 709.994C573.735 709.815 572.813 709.814 571.917 709.993C569.861 710.623 568.001 711.769 566.513 713.322C565.026 714.875 563.96 716.783 563.418 718.864C561.671 723.511 561.095 728.516 561.741 733.439C563.083 743.727 569.196 752.859 576.912 754.238C578.33 754.508 579.791 754.453 581.185 754.079C582.579 753.705 583.871 753.02 584.963 752.076C586.566 750.66 586.827 749.504 586.529 749.43Z" fill="#EB996E"/>
<path d="M838.732 528.65C835.228 549.039 794.001 567.714 759.634 566.708C728.062 565.776 712.443 550.12 689.519 538.975C674.982 531.93 674.982 531.93 655.263 535.247C639.347 537.819 631.072 556.643 622.126 570.062C639.161 607.337 632.265 650.428 625.033 690.685C624.722 695.225 622.897 699.529 619.852 702.911C614.112 707.98 604.942 704.961 599.127 699.78C590.069 691.467 585.932 679.167 582.987 667.239C575.764 640.109 574.041 611.809 577.917 584.003C581.836 556.062 593.863 529.883 612.509 508.707C636.894 483.011 670.305 467.789 705.697 466.251C740.911 464.989 775.629 474.849 804.923 494.431C818.491 503.34 831.016 514.336 838.843 528.612" fill="#263238"/>
<path d="M770.78 754.723L744.687 742.572C743.257 741.726 741.613 741.311 739.953 741.379C738.118 741.792 736.507 742.884 735.443 744.436C732.385 748.096 730.477 752.58 729.96 757.322C729.442 762.064 730.338 766.853 732.535 771.087C734.924 775.212 738.68 778.371 743.152 780.019C747.624 781.666 752.532 781.697 757.025 780.108C766.269 776.38 770.743 765.533 771.488 755.543L770.78 754.723Z" fill="#EB996E"/>
<path d="M757.846 782.046C757.846 782.27 756.616 783.015 754.118 783.574C750.381 784.245 746.535 783.963 742.936 782.754C737.432 780.901 732.819 777.059 730.001 771.982C728.218 768.888 727.149 765.435 726.872 761.875C726.594 758.315 727.116 754.738 728.398 751.406C729.71 747.952 731.772 744.833 734.437 742.274C735.73 741.05 737.155 739.975 738.686 739.068C739.604 738.521 740.639 738.202 741.706 738.136C742.741 738.094 743.773 738.285 744.725 738.695C746.117 739.397 747.473 740.168 748.788 741.006L752.329 743.205L758.703 747.157C766.419 752.077 771.078 755.357 770.817 755.804C770.557 756.252 765.413 753.866 757.324 749.542L750.726 745.815L746.999 743.764C745.731 743.131 744.389 742.273 743.271 741.826C742.812 741.606 742.301 741.517 741.794 741.57C741.287 741.623 740.805 741.815 740.401 742.124C739.163 742.905 738.013 743.818 736.972 744.846C734.759 747.048 733.032 749.689 731.902 752.599C730.821 755.422 730.361 758.445 730.554 761.462C730.747 764.479 731.588 767.419 733.02 770.081C735.344 774.542 739.155 778.05 743.793 779.996C747.002 781.288 750.435 781.934 753.895 781.897C756.355 782.009 757.734 781.785 757.846 782.046Z" fill="#263238"/>
<path d="M749.608 664.405C749.237 660.037 748.552 655.702 747.557 651.433C745.711 644.296 742.393 637.623 737.815 631.845C733.237 626.066 727.5 621.309 720.974 617.88C714.449 614.45 707.277 612.423 699.922 611.93C692.566 611.437 685.188 612.488 678.263 615.015C673.489 616.728 669.003 619.154 664.956 622.209C660.641 625.299 656.863 629.077 653.773 633.392C647.13 642.374 643.544 653.251 643.544 664.424C643.544 675.596 647.13 686.473 653.773 695.455C656.863 699.77 660.641 703.548 664.956 706.638C669.003 709.694 673.489 712.119 678.263 713.832C685.19 716.336 692.562 717.368 699.91 716.864C707.259 716.36 714.421 714.33 720.941 710.903C727.461 707.477 733.195 702.729 737.778 696.963C742.36 691.197 745.691 684.539 747.557 677.414C748.547 673.157 749.232 668.834 749.608 664.479C749.65 664.764 749.65 665.053 749.608 665.337C749.608 666.008 749.608 666.865 749.608 667.871C749.641 669.257 749.541 670.643 749.309 672.009C749.101 673.894 748.765 675.762 748.303 677.6C747.122 682.675 745.174 687.539 742.525 692.026C736.158 702.908 726.18 711.215 714.325 715.505C702.469 719.795 689.485 719.797 677.629 715.509C672.69 713.743 668.051 711.228 663.875 708.054C659.425 704.866 655.522 700.976 652.319 696.536C645.434 687.231 641.718 675.962 641.718 664.386C641.718 652.811 645.434 641.541 652.319 632.236C655.499 627.79 659.391 623.898 663.837 620.718C668.014 617.544 672.653 615.03 677.592 613.263C686.726 609.983 696.573 609.211 706.107 611.027C713.655 612.471 720.807 615.513 727.082 619.949C733.357 624.385 738.61 630.113 742.488 636.747C745.137 641.233 747.085 646.098 748.266 651.172C748.728 653.011 749.064 654.879 749.272 656.764C749.503 658.13 749.603 659.516 749.57 660.901C749.57 661.907 749.57 662.765 749.57 663.436C749.631 663.755 749.644 664.082 749.608 664.405Z" fill="#263238"/>
<path d="M877.237 659.374C876.872 655.121 876.212 650.899 875.262 646.737C872.274 635.464 865.578 625.524 856.252 618.52C849.897 613.688 842.488 610.43 834.632 609.015C825.619 607.36 816.327 608.146 807.719 611.289C803.089 612.964 798.73 615.313 794.785 618.259C790.633 621.299 786.986 624.971 783.975 629.144C777.532 637.906 774.057 648.498 774.057 659.374C774.057 670.25 777.532 680.842 783.975 689.604C786.977 693.773 790.626 697.435 794.785 700.451C798.72 703.423 803.081 705.785 807.719 707.459C816.331 710.584 825.618 711.369 834.632 709.732C842.488 708.317 849.897 705.06 856.252 700.227C865.578 693.224 872.274 683.284 875.262 672.01C876.212 667.849 876.872 663.627 877.237 659.374C877.327 660.478 877.327 661.587 877.237 662.691C877.251 664.052 877.151 665.411 876.939 666.754C876.741 668.588 876.417 670.407 875.97 672.196C873.595 681.959 868.47 690.835 861.202 697.772C853.935 704.71 844.83 709.417 834.967 711.335C825.668 713.091 816.068 712.332 807.16 709.136C797.309 705.547 788.728 699.144 782.484 690.722C775.777 681.647 772.157 670.659 772.157 659.374C772.157 648.089 775.777 637.101 782.484 628.025C788.728 619.603 797.309 613.2 807.16 609.611C816.068 606.416 825.668 605.657 834.967 607.412C844.83 609.331 853.935 614.038 861.202 620.975C868.47 627.912 873.595 636.789 875.97 646.551C876.417 648.341 876.741 650.159 876.939 651.993C877.151 653.337 877.251 654.696 877.237 656.056C877.327 657.16 877.327 658.27 877.237 659.374Z" fill="#263238"/>
<path d="M773.203 647.594C772.979 647.78 771.749 646.774 769.476 645.693C766.544 644.297 763.329 643.596 760.082 643.643C756.843 643.689 753.661 644.507 750.801 646.029C748.564 647.184 747.371 648.265 747.073 648.041C746.775 647.818 747.744 646.401 749.981 644.836C752.926 642.829 756.394 641.729 759.957 641.669C763.521 641.609 767.024 642.594 770.035 644.5C772.308 645.991 773.203 647.445 773.203 647.594Z" fill="#263238"/>
<path d="M645.908 656.802C638.532 663.502 630.738 669.727 622.574 675.44C614.764 681.65 606.572 687.364 598.047 692.549C605.415 685.824 613.223 679.598 621.418 673.911C629.205 667.687 637.385 661.972 645.908 656.802Z" fill="#263238"/>
<g opacity="0.3">
<path d="M601.737 899.389C596.555 949.971 615.789 1003.39 656.382 1034.03C659.55 1036.45 663.539 1038.84 667.304 1037.46C669.814 1036.24 671.819 1034.18 672.969 1031.64C684.337 1012 688.602 989.047 685.047 966.633C678.635 983.556 673.118 1000.18 666.633 1017.85C631.333 996.379 609.192 950.754 601.737 899.389Z" fill="black"/>
</g>
<path opacity="0.3" d="M739.17 1014.42L768.991 1003.53L773.911 1053.89C773.911 1053.89 806.042 995.334 819.349 968.645C832.657 941.956 825.798 894.766 825.798 894.766C825.798 894.766 830.532 935.769 798.363 988.215L774.06 1027.73V986.351L739.17 1014.42Z" fill="black"/>
<g opacity="0.3">
<path d="M392.997 1270.35C379.403 1264.58 364.468 1262.7 349.869 1264.95C334.313 1266.22 319.43 1271.85 306.929 1281.2C294.851 1290.93 286.688 1306.28 288.291 1321.72L289.782 1321.9C300.182 1293.8 320.832 1273.44 347.484 1270.87C374.136 1268.3 400.116 1280.23 418.307 1299.8C416.331 1285.19 406.118 1276.58 392.997 1270.35Z" fill="black"/>
</g>
<g opacity="0.3">
<path d="M1145.73 1298.94C1135.4 1288.34 1121.9 1281.39 1107.26 1279.15C1094.52 1277.02 1081.46 1277.77 1069.04 1281.37C1056.63 1284.96 1045.18 1291.3 1035.55 1299.91L1041.21 1295.29C1055.63 1286.61 1072.17 1282.12 1089 1282.32C1105.88 1282.61 1122.08 1289.08 1134.51 1300.51C1145.69 1311.09 1152.37 1325.44 1158.74 1339.42C1159.77 1332.13 1159.14 1324.7 1156.89 1317.69C1154.63 1310.68 1150.82 1304.27 1145.73 1298.94Z" fill="black"/>
</g>
<path d="M953.801 1065.22C954.104 1063.83 954.554 1062.47 955.143 1061.16C956.299 1058.22 957.715 1054.6 959.355 1050.31C963.083 1041.18 967.929 1028.58 973.147 1014.53C978.366 1000.48 982.876 987.692 986.119 978.448L989.846 967.452C990.246 966.079 990.796 964.754 991.486 963.501C991.371 964.929 991.057 966.334 990.555 967.676C989.846 970.36 988.728 974.162 987.274 978.858C984.367 988.252 980.043 1001.22 974.824 1015.2C969.606 1029.18 964.425 1041.85 960.473 1050.84C958.535 1055.35 956.746 1058.96 955.665 1061.46C955.201 1062.79 954.575 1064.05 953.801 1065.22Z" fill="#263238"/>
<path d="M483.873 1068.88C483.351 1068.88 479.288 1051.25 474.815 1029.26C470.342 1007.26 467.137 989.557 467.547 989.259C467.957 988.961 472.094 1006.89 476.567 1028.88C481.04 1050.87 484.395 1068.77 483.873 1068.88Z" fill="#263238"/>
<path d="M476.828 1290.63C478.021 1291.22 463.185 1174.48 463.185 1174.48C463.185 1174.48 472.541 1085.88 477.797 1081.78V1050.5C477.797 1050.5 492.297 1041.74 496.174 1055.91C496.174 1055.91 509.034 1044.72 511.084 1071.3C513.134 1097.88 513.805 1125.01 513.805 1125.01L542.395 1196.51L547.091 1198.89C547.091 1198.89 553.242 1142.98 556.82 1134.63C560.399 1126.28 562.859 1106.34 576.39 1109.36C589.921 1112.38 591.076 1123.56 588.653 1141.83C586.23 1160.09 583.174 1179.1 584.329 1190.81C585.485 1202.51 590.815 1228.57 589.175 1249.22C587.535 1269.87 576.203 1291.63 564.35 1306.92C552.496 1322.2 529.796 1353.85 517.495 1363.35C513.507 1366.71 476.828 1290.63 476.828 1290.63Z" fill="#FFBE9D"/>
<path d="M491.291 1195.61C491.105 1193.95 491.105 1192.28 491.291 1190.62C491.515 1186.89 491.85 1182.49 492.223 1177.05C493.08 1165.61 494.422 1149.8 495.951 1132.32C496.771 1123.64 497.553 1115.36 498.262 1107.76C498.687 1104.25 498.687 1100.71 498.262 1097.21C497.865 1094.21 496.565 1091.4 494.534 1089.16C493.044 1087.55 491.239 1086.27 489.232 1085.39C487.225 1084.51 485.058 1084.05 482.867 1084.05C481.227 1084.13 479.595 1084.33 477.984 1084.65C478.35 1084.39 478.752 1084.19 479.177 1084.05C480.372 1083.6 481.629 1083.34 482.904 1083.27C485.255 1083.13 487.606 1083.51 489.8 1084.36C491.993 1085.22 493.976 1086.53 495.615 1088.22C497.869 1090.64 499.315 1093.71 499.753 1096.98C500.22 1100.61 500.22 1104.28 499.753 1107.91C499.082 1115.36 498.336 1123.82 497.591 1132.51C495.988 1149.95 494.422 1165.72 493.192 1177.24L491.664 1190.77C491.679 1192.39 491.554 1194.01 491.291 1195.61Z" fill="#EB996E"/>
<path d="M506.647 1147.87C504.565 1150.7 502.861 1153.8 501.578 1157.07C499.305 1165.33 497.721 1173.75 496.844 1182.27C495.278 1192.26 493.788 1201.28 492.595 1207.8C492.162 1211.36 491.388 1214.87 490.284 1218.28C490.298 1214.69 490.622 1211.11 491.253 1207.58C492.073 1201.02 493.377 1191.96 494.98 1181.97C496.583 1171.98 497.627 1162.85 500.385 1156.59C501.366 1154.13 502.738 1151.85 504.448 1149.84C505.678 1148.35 506.573 1147.79 506.647 1147.87Z" fill="#EB996E"/>
<path d="M496.138 1054.38C496.657 1055.56 496.996 1056.82 497.144 1058.1C497.666 1060.49 498.3 1063.96 499.008 1068.28C500.424 1076.89 501.99 1088.86 502.996 1102.16C504.003 1115.47 504.189 1127.55 504.04 1136.27C504.04 1140.63 503.854 1144.17 503.667 1146.6C503.699 1147.85 503.548 1149.11 503.22 1150.32C502.768 1145.64 502.581 1140.94 502.661 1136.23C502.474 1127.51 502.027 1115.51 501.058 1102.28C500.089 1089.04 498.747 1077.08 497.666 1068.43C496.878 1063.78 496.368 1059.09 496.138 1054.38Z" fill="#EB996E"/>
<path d="M578.625 1163.82C577.212 1164.73 575.596 1165.28 573.919 1165.42C572.242 1165.57 570.556 1165.3 569.008 1164.64C563.529 1163 560.994 1158.79 561.553 1158.6C564.12 1160.23 566.827 1161.63 569.642 1162.77C572.603 1163.37 575.607 1163.72 578.625 1163.82Z" fill="#EB996E"/>
<path d="M478.432 1276.09L402.912 1307.85H357.884C357.884 1307.85 313.377 1321.75 306.519 1363.5C299.66 1405.25 298.691 1426.68 318.26 1431.86C337.83 1437.04 393.109 1437.6 420.506 1428.51C447.903 1419.41 519.695 1361.41 519.695 1361.41L526.591 1319.52L478.432 1276.09Z" fill="#FFBE9D"/>
<path d="M496.137 1322.24C496.137 1322.24 495.28 1321.6 493.975 1320.26C492.177 1318.31 490.544 1316.22 489.092 1314C484.364 1306.63 480.805 1298.57 478.543 1290.11C476.205 1281.72 474.645 1273.13 473.884 1264.46C473.381 1260.88 473.281 1257.25 473.585 1253.65C474.393 1257.15 474.941 1260.7 475.225 1264.27C476.376 1272.82 478.107 1281.27 480.407 1289.58C482.657 1297.87 485.965 1305.84 490.247 1313.29C493.639 1318.92 496.398 1321.98 496.137 1322.24Z" fill="#EB996E"/>
<path d="M529.05 1335.47C531.05 1330.25 532.487 1324.82 533.337 1319.29C535.028 1305.81 531.39 1292.19 523.198 1281.35C518.613 1274.94 513.432 1269.34 509.071 1263.9C505.099 1259.16 501.673 1253.98 498.857 1248.47C497.009 1244.71 495.752 1240.69 495.13 1236.54C494.901 1235.04 494.901 1233.5 495.13 1231.99C496.004 1237.51 497.74 1242.86 500.274 1247.84C503.21 1253.16 506.695 1258.15 510.674 1262.75C515.035 1268.04 520.253 1273.63 524.95 1280.19C529.519 1286.34 532.733 1293.39 534.381 1300.88C535.651 1307.01 535.815 1313.33 534.865 1319.52C534.239 1323.65 533.086 1327.68 531.436 1331.52C530.84 1332.86 530.28 1333.87 529.908 1334.54C529.535 1335.21 529.088 1335.51 529.05 1335.47Z" fill="#EB996E"/>
<path d="M412.566 1153.57C405.866 1142.7 399.721 1131.51 394.152 1120.02C384.46 1101.38 377.005 1085.88 377.453 1085.62C384.152 1096.48 390.298 1107.68 395.867 1119.16C402.016 1130.34 407.59 1141.82 412.566 1153.57Z" fill="white"/>
<path d="M534.641 1017.55C537.819 1007.99 541.617 998.656 546.01 989.595C549.823 980.282 554.218 971.219 559.168 962.458C555.97 972.007 552.173 981.344 547.799 990.415C543.996 999.731 539.601 1008.79 534.641 1017.55Z" fill="white"/>
<path d="M654.407 1105.82C648.223 1099.87 642.491 1093.46 637.261 1086.66C631.56 1080.26 626.34 1073.44 621.643 1066.27C627.832 1072.2 633.552 1078.61 638.752 1085.43C644.471 1091.83 649.704 1098.64 654.407 1105.82Z" fill="white"/>
<path d="M626.861 1227.22C630.643 1220.41 634.956 1213.9 639.758 1207.77C644.082 1201.28 648.932 1195.16 654.258 1189.46C650.486 1196.28 646.173 1202.79 641.361 1208.92C637.061 1215.43 632.209 1221.55 626.861 1227.22Z" fill="white"/>
<path d="M589.809 1398.73C588.069 1396.42 586.606 1393.92 585.448 1391.27C582.988 1386.5 579.819 1379.83 576.614 1372.34C573.408 1364.84 570.836 1357.87 569.159 1352.84C568.044 1350.16 567.243 1347.36 566.773 1344.49C568.308 1346.96 569.559 1349.6 570.5 1352.36L578.515 1371.55C581.608 1378.67 584.367 1385.12 586.79 1390.67C588.092 1393.24 589.105 1395.94 589.809 1398.73Z" fill="white"/>
<path d="M694.925 1325.82C687.303 1325.31 679.735 1324.18 672.299 1322.42C664.707 1321.3 657.225 1319.53 649.934 1317.13C665.062 1318.76 680.025 1321.67 694.664 1325.82H694.925Z" fill="white"/>
<path d="M776.93 1165.57C783.609 1156.92 790.804 1148.68 798.475 1140.89C805.689 1132.65 813.38 1124.83 821.511 1117.49C814.805 1126.14 807.599 1134.39 799.929 1142.2C792.717 1150.42 785.038 1158.23 776.93 1165.57Z" fill="white"/>
<path d="M858.935 1379.27C858.525 1379.64 846.485 1365.66 832.022 1348.14C817.56 1330.62 806.191 1316.09 806.601 1315.75C807.011 1315.42 819.051 1329.36 833.513 1346.88C847.976 1364.4 859.27 1378.93 858.935 1379.27Z" fill="white"/>
<path d="M349.011 1288.2C349.271 1288.73 338.275 1294.32 326.273 1303.52C314.27 1312.73 305.92 1321.83 305.473 1321.42C306.828 1319.06 308.538 1316.92 310.543 1315.08C315.007 1310.31 319.87 1305.94 325.08 1302C330.267 1298.04 335.779 1294.52 341.556 1291.48C343.868 1290.03 346.379 1288.93 349.011 1288.2Z" fill="white"/>
<path d="M379.727 1205.75C377.358 1211.03 374.421 1216.03 370.967 1220.66C368.025 1225.66 364.537 1230.31 360.567 1234.53C362.942 1229.26 365.879 1224.26 369.327 1219.62C372.262 1214.62 375.75 1209.97 379.727 1205.75Z" fill="white"/>
<path d="M448.909 1286.71C442.941 1277.22 440.39 1265.98 441.678 1254.84C442.237 1254.84 442.423 1262.3 444.473 1270.98C446.523 1279.67 449.431 1286.45 448.909 1286.71Z" fill="white"/>
<path d="M459.159 1029.81C454.525 1031.43 449.702 1032.45 444.808 1032.83C439.995 1033.84 435.069 1034.21 430.159 1033.91C434.807 1032.3 439.642 1031.28 444.547 1030.89C449.351 1029.91 454.262 1029.54 459.159 1029.81Z" fill="white"/>
<path d="M511.122 937.633C503.094 943.573 494.322 948.436 485.03 952.095C488.844 948.86 493.068 946.141 497.591 944.007C501.814 941.318 506.36 939.176 511.122 937.633Z" fill="white"/>
<path d="M657.277 976.585C652.01 971.228 647.197 965.443 642.889 959.289C638.106 953.508 633.817 947.336 630.066 940.838C640.151 951.945 649.256 963.906 657.277 976.585Z" fill="white"/>
<path d="M842.796 1069.25C832.521 1059.13 824.793 1046.71 820.244 1033.02C820.803 1032.8 824.792 1041.48 831.054 1051.43C837.316 1061.39 843.243 1068.88 842.796 1069.25Z" fill="white"/>
<path d="M913.619 1092.58C909.12 1105.69 903.379 1118.33 896.472 1130.34C898.46 1123.7 901.042 1117.25 904.188 1111.07C906.739 1104.63 909.897 1098.43 913.619 1092.58Z" fill="white"/>
<path d="M923.533 995.931C916.757 989.351 910.454 982.301 904.672 974.833C898.39 967.783 892.599 960.31 887.339 952.468C900.383 966.112 912.476 980.633 923.533 995.931Z" fill="white"/>
<path d="M815.361 917.429C814.179 911.49 813.617 905.444 813.683 899.388C813.121 893.345 813.209 887.26 813.944 881.235C815.125 887.175 815.688 893.221 815.622 899.277C816.207 905.319 816.119 911.407 815.361 917.429Z" fill="white"/>
<path d="M903.665 912.546C896.11 914.527 888.406 915.885 880.629 916.609C872.948 917.959 865.168 918.67 857.37 918.734C864.925 916.753 872.629 915.395 880.406 914.671C888.087 913.32 895.867 912.609 903.665 912.546Z" fill="white"/>
<path d="M1042.44 1014.57C1037.26 1006.07 1032.63 997.259 1028.57 988.178C1023.97 979.365 1019.93 970.263 1016.5 960.929C1021.69 969.418 1026.34 978.233 1030.4 987.32C1034.99 996.135 1039.02 1005.24 1042.44 1014.57Z" fill="white"/>
<path d="M1019.22 1102.73C1020.78 1088.49 1023.6 1074.42 1027.64 1060.68C1027.19 1067.83 1026.11 1074.93 1024.4 1081.89C1023.31 1088.98 1021.58 1095.95 1019.22 1102.73Z" fill="white"/>
<path d="M1083.48 1172.21C1079.13 1162.92 1075.4 1153.35 1072.3 1143.58C1068.6 1134.02 1065.53 1124.23 1063.09 1114.28C1067.41 1123.59 1071.15 1133.17 1074.27 1142.94C1077.95 1152.5 1081.03 1162.27 1083.48 1172.21Z" fill="white"/>
<path d="M1074.5 1212.87C1067.84 1211.87 1061.45 1209.58 1055.67 1206.13C1049.61 1203.21 1044.2 1199.1 1039.76 1194.05C1040.13 1193.6 1046.99 1199.27 1056.61 1204.41C1066.22 1209.55 1074.68 1212.31 1074.5 1212.87Z" fill="white"/>
<path d="M1157.14 1305.54C1152.12 1297.4 1148.22 1288.63 1145.54 1279.45C1150.56 1287.58 1154.46 1296.36 1157.14 1305.54Z" fill="white"/>
<path d="M669.615 1434.81C668.025 1429.43 667.05 1423.89 666.707 1418.3C665.763 1412.77 665.438 1407.16 665.738 1401.56C667.44 1406.97 668.479 1412.56 668.832 1418.22C669.725 1423.7 669.987 1429.27 669.615 1434.81Z" fill="white"/>
<path d="M922.825 1428.4C922.996 1422.94 923.809 1417.52 925.248 1412.26C926.088 1406.86 927.551 1401.58 929.609 1396.53C929.438 1401.99 928.612 1407.4 927.149 1412.67C926.332 1418.06 924.881 1423.34 922.825 1428.4Z" fill="white"/>
<rect x="385.5" y="381.5" width="660" height="660" stroke="white" stroke-width="5"/>
<rect x="385.5" y="293.5" width="660" height="748" stroke="white" stroke-width="5"/>
<path d="M424.959 328.662V360.156H420.418V323.584H424.568L424.959 328.662ZM442.757 336.572V337.085C442.757 339.006 442.529 340.788 442.073 342.432C441.618 344.059 440.95 345.475 440.071 346.68C439.209 347.884 438.143 348.82 436.873 349.487C435.604 350.155 434.147 350.488 432.503 350.488C430.826 350.488 429.345 350.212 428.06 349.658C426.774 349.105 425.683 348.299 424.788 347.241C423.893 346.183 423.177 344.914 422.64 343.433C422.119 341.951 421.761 340.283 421.565 338.428V335.693C421.761 333.74 422.127 331.991 422.664 330.444C423.201 328.898 423.909 327.58 424.788 326.489C425.683 325.382 426.766 324.544 428.035 323.975C429.305 323.389 430.77 323.096 432.43 323.096C434.09 323.096 435.563 323.421 436.849 324.072C438.134 324.707 439.217 325.618 440.096 326.807C440.975 327.995 441.634 329.419 442.073 331.079C442.529 332.723 442.757 334.554 442.757 336.572ZM438.216 337.085V336.572C438.216 335.254 438.077 334.017 437.801 332.861C437.524 331.689 437.093 330.664 436.507 329.785C435.937 328.89 435.205 328.19 434.31 327.686C433.414 327.165 432.348 326.904 431.111 326.904C429.972 326.904 428.979 327.1 428.133 327.49C427.303 327.881 426.595 328.41 426.009 329.077C425.423 329.728 424.943 330.477 424.568 331.323C424.21 332.153 423.942 333.016 423.763 333.911V340.234C424.088 341.374 424.544 342.448 425.13 343.457C425.716 344.45 426.497 345.256 427.474 345.874C428.45 346.476 429.679 346.777 431.16 346.777C432.381 346.777 433.431 346.525 434.31 346.021C435.205 345.5 435.937 344.792 436.507 343.896C437.093 343.001 437.524 341.976 437.801 340.82C438.077 339.648 438.216 338.403 438.216 337.085ZM459.48 350.488C457.641 350.488 455.973 350.179 454.476 349.561C452.994 348.926 451.717 348.039 450.643 346.899C449.585 345.76 448.771 344.409 448.201 342.847C447.632 341.284 447.347 339.575 447.347 337.72V336.694C447.347 334.546 447.664 332.633 448.299 330.957C448.934 329.264 449.796 327.832 450.887 326.66C451.977 325.488 453.214 324.601 454.598 323.999C455.981 323.397 457.413 323.096 458.895 323.096C460.783 323.096 462.41 323.421 463.777 324.072C465.161 324.723 466.292 325.635 467.171 326.807C468.05 327.962 468.701 329.329 469.124 330.908C469.547 332.471 469.759 334.18 469.759 336.035V338.062H450.032V334.375H465.242V334.033C465.177 332.861 464.933 331.722 464.51 330.615C464.103 329.508 463.452 328.597 462.557 327.881C461.661 327.165 460.441 326.807 458.895 326.807C457.869 326.807 456.925 327.026 456.062 327.466C455.2 327.889 454.459 328.524 453.841 329.37C453.222 330.216 452.742 331.25 452.4 332.471C452.059 333.691 451.888 335.099 451.888 336.694V337.72C451.888 338.973 452.059 340.153 452.4 341.26C452.758 342.35 453.271 343.311 453.938 344.141C454.622 344.971 455.444 345.622 456.404 346.094C457.381 346.566 458.488 346.802 459.725 346.802C461.32 346.802 462.671 346.476 463.777 345.825C464.884 345.174 465.853 344.303 466.683 343.213L469.417 345.386C468.847 346.248 468.123 347.07 467.244 347.852C466.365 348.633 465.283 349.268 463.997 349.756C462.728 350.244 461.222 350.488 459.48 350.488ZM479.549 327.734V350H475.032V323.584H479.427L479.549 327.734ZM487.801 323.438L487.776 327.637C487.402 327.555 487.044 327.507 486.702 327.49C486.377 327.458 486.002 327.441 485.579 327.441C484.537 327.441 483.618 327.604 482.82 327.93C482.023 328.255 481.347 328.711 480.794 329.297C480.241 329.883 479.801 330.583 479.476 331.396C479.166 332.194 478.963 333.073 478.865 334.033L477.596 334.766C477.596 333.171 477.75 331.673 478.06 330.273C478.385 328.874 478.882 327.637 479.549 326.562C480.216 325.472 481.062 324.626 482.088 324.023C483.13 323.405 484.367 323.096 485.799 323.096C486.124 323.096 486.499 323.136 486.922 323.218C487.345 323.283 487.638 323.356 487.801 323.438ZM507.356 342.993C507.356 342.342 507.21 341.74 506.917 341.187C506.64 340.617 506.062 340.104 505.184 339.648C504.321 339.176 503.019 338.77 501.277 338.428C499.812 338.118 498.486 337.752 497.298 337.329C496.126 336.906 495.125 336.393 494.295 335.791C493.481 335.189 492.854 334.481 492.415 333.667C491.976 332.853 491.756 331.901 491.756 330.811C491.756 329.769 491.984 328.784 492.439 327.856C492.911 326.929 493.571 326.107 494.417 325.391C495.28 324.674 496.313 324.113 497.518 323.706C498.722 323.299 500.065 323.096 501.546 323.096C503.662 323.096 505.468 323.47 506.966 324.219C508.463 324.967 509.611 325.968 510.408 327.222C511.206 328.459 511.604 329.834 511.604 331.348H507.088C507.088 330.615 506.868 329.907 506.429 329.224C506.006 328.524 505.379 327.946 504.549 327.49C503.735 327.035 502.734 326.807 501.546 326.807C500.293 326.807 499.275 327.002 498.494 327.393C497.729 327.767 497.168 328.247 496.81 328.833C496.468 329.419 496.297 330.037 496.297 330.688C496.297 331.177 496.378 331.616 496.541 332.007C496.72 332.381 497.029 332.731 497.469 333.057C497.908 333.366 498.527 333.659 499.324 333.936C500.122 334.212 501.139 334.489 502.376 334.766C504.541 335.254 506.323 335.84 507.723 336.523C509.122 337.207 510.164 338.045 510.848 339.038C511.531 340.031 511.873 341.235 511.873 342.651C511.873 343.807 511.629 344.865 511.141 345.825C510.669 346.785 509.977 347.616 509.065 348.315C508.17 348.999 507.096 349.536 505.843 349.927C504.606 350.301 503.214 350.488 501.668 350.488C499.34 350.488 497.371 350.073 495.76 349.243C494.148 348.413 492.928 347.339 492.098 346.021C491.268 344.702 490.853 343.311 490.853 341.846H495.394C495.459 343.083 495.817 344.067 496.468 344.8C497.119 345.516 497.916 346.029 498.86 346.338C499.804 346.631 500.74 346.777 501.668 346.777C502.905 346.777 503.938 346.615 504.769 346.289C505.615 345.964 506.258 345.516 506.697 344.946C507.137 344.377 507.356 343.726 507.356 342.993ZM516.609 337.085V336.523C516.609 334.619 516.886 332.853 517.439 331.226C517.993 329.582 518.79 328.158 519.832 326.953C520.874 325.732 522.135 324.788 523.616 324.121C525.097 323.438 526.757 323.096 528.597 323.096C530.452 323.096 532.12 323.438 533.602 324.121C535.099 324.788 536.368 325.732 537.41 326.953C538.468 328.158 539.274 329.582 539.827 331.226C540.381 332.853 540.657 334.619 540.657 336.523V337.085C540.657 338.989 540.381 340.755 539.827 342.383C539.274 344.01 538.468 345.435 537.41 346.655C536.368 347.86 535.107 348.804 533.626 349.487C532.161 350.155 530.501 350.488 528.646 350.488C526.79 350.488 525.122 350.155 523.641 349.487C522.16 348.804 520.89 347.86 519.832 346.655C518.79 345.435 517.993 344.01 517.439 342.383C516.886 340.755 516.609 338.989 516.609 337.085ZM521.126 336.523V337.085C521.126 338.403 521.281 339.648 521.59 340.82C521.899 341.976 522.363 343.001 522.981 343.896C523.616 344.792 524.406 345.5 525.35 346.021C526.294 346.525 527.392 346.777 528.646 346.777C529.882 346.777 530.965 346.525 531.893 346.021C532.837 345.5 533.618 344.792 534.236 343.896C534.855 343.001 535.319 341.976 535.628 340.82C535.953 339.648 536.116 338.403 536.116 337.085V336.523C536.116 335.221 535.953 333.993 535.628 332.837C535.319 331.665 534.847 330.632 534.212 329.736C533.593 328.825 532.812 328.109 531.868 327.588C530.94 327.067 529.85 326.807 528.597 326.807C527.36 326.807 526.269 327.067 525.325 327.588C524.397 328.109 523.616 328.825 522.981 329.736C522.363 330.632 521.899 331.665 521.59 332.837C521.281 333.993 521.126 335.221 521.126 336.523ZM550.838 329.224V350H546.321V323.584H550.594L550.838 329.224ZM549.764 335.791L547.884 335.718C547.9 333.911 548.169 332.243 548.689 330.713C549.21 329.167 549.943 327.824 550.887 326.685C551.831 325.545 552.954 324.666 554.256 324.048C555.574 323.413 557.031 323.096 558.626 323.096C559.928 323.096 561.1 323.275 562.142 323.633C563.183 323.975 564.07 324.528 564.803 325.293C565.551 326.058 566.121 327.051 566.512 328.271C566.902 329.476 567.098 330.949 567.098 332.69V350H562.557V332.642C562.557 331.258 562.353 330.151 561.946 329.321C561.539 328.475 560.945 327.865 560.164 327.49C559.383 327.1 558.423 326.904 557.283 326.904C556.16 326.904 555.135 327.14 554.207 327.612C553.296 328.084 552.506 328.735 551.839 329.565C551.188 330.396 550.675 331.348 550.301 332.422C549.943 333.48 549.764 334.603 549.764 335.791ZM608.187 329.395V334.814C608.187 337.728 607.926 340.186 607.405 342.188C606.884 344.189 606.136 345.801 605.159 347.021C604.183 348.242 603.003 349.129 601.619 349.683C600.252 350.22 598.706 350.488 596.98 350.488C595.613 350.488 594.352 350.317 593.196 349.976C592.041 349.634 590.999 349.089 590.071 348.34C589.16 347.575 588.379 346.582 587.728 345.361C587.076 344.141 586.58 342.66 586.238 340.918C585.896 339.176 585.726 337.142 585.726 334.814V329.395C585.726 326.481 585.986 324.04 586.507 322.07C587.044 320.101 587.801 318.522 588.777 317.334C589.754 316.13 590.926 315.267 592.293 314.746C593.676 314.225 595.223 313.965 596.932 313.965C598.315 313.965 599.585 314.136 600.74 314.478C601.912 314.803 602.954 315.332 603.865 316.064C604.777 316.781 605.55 317.741 606.185 318.945C606.836 320.133 607.332 321.59 607.674 323.315C608.016 325.041 608.187 327.067 608.187 329.395ZM603.646 335.547V328.638C603.646 327.043 603.548 325.643 603.353 324.438C603.174 323.218 602.905 322.176 602.547 321.313C602.189 320.451 601.733 319.751 601.18 319.214C600.643 318.677 600.016 318.286 599.3 318.042C598.6 317.782 597.811 317.651 596.932 317.651C595.857 317.651 594.905 317.855 594.075 318.262C593.245 318.652 592.545 319.279 591.976 320.142C591.422 321.004 590.999 322.135 590.706 323.535C590.413 324.935 590.267 326.636 590.267 328.638V335.547C590.267 337.142 590.356 338.55 590.535 339.771C590.73 340.991 591.015 342.049 591.39 342.944C591.764 343.823 592.22 344.548 592.757 345.117C593.294 345.687 593.912 346.11 594.612 346.387C595.328 346.647 596.118 346.777 596.98 346.777C598.087 346.777 599.056 346.566 599.886 346.143C600.716 345.719 601.408 345.06 601.961 344.165C602.531 343.254 602.954 342.09 603.23 340.674C603.507 339.242 603.646 337.533 603.646 335.547ZM614.559 347.607C614.559 346.842 614.795 346.2 615.267 345.679C615.755 345.142 616.455 344.873 617.366 344.873C618.278 344.873 618.969 345.142 619.441 345.679C619.93 346.2 620.174 346.842 620.174 347.607C620.174 348.356 619.93 348.991 619.441 349.512C618.969 350.033 618.278 350.293 617.366 350.293C616.455 350.293 615.755 350.033 615.267 349.512C614.795 348.991 614.559 348.356 614.559 347.607ZM631.673 346.216H632.137C634.741 346.216 636.857 345.85 638.484 345.117C640.112 344.385 641.365 343.4 642.244 342.163C643.123 340.926 643.725 339.535 644.051 337.988C644.376 336.426 644.539 334.823 644.539 333.179V327.734C644.539 326.123 644.352 324.691 643.978 323.438C643.619 322.184 643.115 321.134 642.464 320.288C641.829 319.442 641.105 318.799 640.291 318.359C639.477 317.92 638.615 317.7 637.703 317.7C636.661 317.7 635.726 317.912 634.896 318.335C634.082 318.742 633.39 319.32 632.82 320.068C632.267 320.817 631.844 321.696 631.551 322.705C631.258 323.714 631.111 324.813 631.111 326.001C631.111 327.059 631.242 328.084 631.502 329.077C631.762 330.07 632.161 330.965 632.698 331.763C633.235 332.56 633.903 333.195 634.7 333.667C635.514 334.123 636.466 334.351 637.557 334.351C638.566 334.351 639.51 334.155 640.389 333.765C641.284 333.358 642.073 332.812 642.757 332.129C643.457 331.429 644.01 330.64 644.417 329.761C644.84 328.882 645.084 327.962 645.149 327.002H647.298C647.298 328.353 647.029 329.688 646.492 331.006C645.971 332.308 645.239 333.496 644.295 334.57C643.351 335.645 642.244 336.507 640.975 337.158C639.705 337.793 638.322 338.11 636.824 338.11C635.066 338.11 633.545 337.769 632.259 337.085C630.973 336.401 629.915 335.49 629.085 334.351C628.271 333.211 627.661 331.942 627.254 330.542C626.863 329.126 626.668 327.694 626.668 326.245C626.668 324.552 626.904 322.965 627.376 321.484C627.848 320.003 628.548 318.701 629.476 317.578C630.403 316.439 631.551 315.552 632.918 314.917C634.301 314.282 635.896 313.965 637.703 313.965C639.738 313.965 641.471 314.372 642.903 315.186C644.336 315.999 645.499 317.09 646.395 318.457C647.306 319.824 647.973 321.362 648.396 323.071C648.82 324.78 649.031 326.538 649.031 328.345V329.98C649.031 331.82 648.909 333.691 648.665 335.596C648.437 337.484 647.99 339.29 647.322 341.016C646.671 342.741 645.719 344.287 644.466 345.654C643.213 347.005 641.577 348.079 639.559 348.877C637.557 349.658 635.083 350.049 632.137 350.049H631.673V346.216ZM659.798 346.216H660.262C662.866 346.216 664.982 345.85 666.609 345.117C668.237 344.385 669.49 343.4 670.369 342.163C671.248 340.926 671.85 339.535 672.176 337.988C672.501 336.426 672.664 334.823 672.664 333.179V327.734C672.664 326.123 672.477 324.691 672.103 323.438C671.744 322.184 671.24 321.134 670.589 320.288C669.954 319.442 669.23 318.799 668.416 318.359C667.602 317.92 666.74 317.7 665.828 317.7C664.786 317.7 663.851 317.912 663.021 318.335C662.207 318.742 661.515 319.32 660.945 320.068C660.392 320.817 659.969 321.696 659.676 322.705C659.383 323.714 659.236 324.813 659.236 326.001C659.236 327.059 659.367 328.084 659.627 329.077C659.887 330.07 660.286 330.965 660.823 331.763C661.36 332.56 662.028 333.195 662.825 333.667C663.639 334.123 664.591 334.351 665.682 334.351C666.691 334.351 667.635 334.155 668.514 333.765C669.409 333.358 670.198 332.812 670.882 332.129C671.582 331.429 672.135 330.64 672.542 329.761C672.965 328.882 673.209 327.962 673.274 327.002H675.423C675.423 328.353 675.154 329.688 674.617 331.006C674.096 332.308 673.364 333.496 672.42 334.57C671.476 335.645 670.369 336.507 669.1 337.158C667.83 337.793 666.447 338.11 664.949 338.11C663.191 338.11 661.67 337.769 660.384 337.085C659.098 336.401 658.04 335.49 657.21 334.351C656.396 333.211 655.786 331.942 655.379 330.542C654.988 329.126 654.793 327.694 654.793 326.245C654.793 324.552 655.029 322.965 655.501 321.484C655.973 320.003 656.673 318.701 657.601 317.578C658.528 316.439 659.676 315.552 661.043 314.917C662.426 314.282 664.021 313.965 665.828 313.965C667.863 313.965 669.596 314.372 671.028 315.186C672.461 315.999 673.624 317.09 674.52 318.457C675.431 319.824 676.098 321.362 676.521 323.071C676.945 324.78 677.156 326.538 677.156 328.345V329.98C677.156 331.82 677.034 333.691 676.79 335.596C676.562 337.484 676.115 339.29 675.447 341.016C674.796 342.741 673.844 344.287 672.591 345.654C671.338 347.005 669.702 348.079 667.684 348.877C665.682 349.658 663.208 350.049 660.262 350.049H659.798V346.216Z" fill="white"/>
</g>
<defs>
<clipPath id="clip0_38_105">
<rect width="1436" height="1436" fill="white"/>
</clipPath>
</defs>
</svg>
