<svg width="400" height="400" viewBox="0 0 400 400" fill="none" xmlns="http://www.w3.org/2000/svg">
<rect x="4" y="4" width="392" height="392" rx="36" fill="#F5ECD7" stroke="#474E77" stroke-width="8"/>
<path d="M71.7863 228V188H83.9463L84.6663 201.76L83.1463 200.24C83.6796 197.36 84.6129 194.96 85.9463 193.04C87.3329 191.12 89.0396 189.68 91.0663 188.72C93.1463 187.707 95.4663 187.2 98.0263 187.2C100.8 187.2 103.2 187.733 105.226 188.8C107.306 189.867 108.933 191.44 110.106 193.52C111.28 195.6 111.866 198.213 111.866 201.36V228H98.2663V204.96C98.2663 202.187 97.7329 200.267 96.6663 199.2C95.5996 198.133 94.2396 197.6 92.5863 197.6C91.3063 197.6 90.1063 197.92 88.9863 198.56C87.8663 199.147 86.9863 200.107 86.3463 201.44C85.7063 202.773 85.3863 204.56 85.3863 206.8V228H71.7863ZM121.396 228V171.04H134.996V195.28C136.169 192.613 137.849 190.613 140.036 189.28C142.222 187.893 144.756 187.2 147.636 187.2C150.409 187.2 152.809 187.733 154.836 188.8C156.916 189.867 158.542 191.44 159.716 193.52C160.889 195.6 161.476 198.213 161.476 201.36V228H147.876V205.12C147.876 202.24 147.342 200.267 146.276 199.2C145.262 198.08 143.902 197.52 142.196 197.52C140.916 197.52 139.716 197.84 138.596 198.48C137.476 199.12 136.596 200.133 135.956 201.52C135.316 202.907 134.996 204.72 134.996 206.96V228H121.396ZM193.325 202.64C193.325 200.773 192.792 199.307 191.725 198.24C190.712 197.12 189.325 196.56 187.565 196.56C185.805 196.56 184.285 197.013 183.005 197.92C181.778 198.773 180.925 200.32 180.445 202.56L168.925 199.84C169.672 196 171.645 192.933 174.845 190.64C178.045 188.347 182.552 187.2 188.365 187.2C192.258 187.2 195.565 187.787 198.285 188.96C201.058 190.08 203.165 191.787 204.605 194.08C206.098 196.32 206.845 199.093 206.845 202.4V217.04C206.845 219.12 207.778 220.16 209.645 220.16C210.605 220.16 211.378 220.053 211.965 219.84L211.165 227.6C209.565 228.347 207.618 228.72 205.325 228.72C203.245 228.72 201.405 228.4 199.805 227.76C198.205 227.067 196.952 226.053 196.045 224.72C195.138 223.333 194.685 221.6 194.685 219.52V219.04L196.205 218.48C196.205 220.773 195.512 222.693 194.125 224.24C192.792 225.787 191.032 226.933 188.845 227.68C186.712 228.427 184.472 228.8 182.125 228.8C179.405 228.8 177.032 228.373 175.005 227.52C172.978 226.667 171.405 225.44 170.285 223.84C169.218 222.187 168.685 220.16 168.685 217.76C168.685 214.88 169.538 212.507 171.245 210.64C173.005 208.72 175.752 207.387 179.485 206.64L194.605 203.52L194.525 210.72L186.845 212.32C185.245 212.64 184.045 213.12 183.245 213.76C182.498 214.347 182.125 215.253 182.125 216.48C182.125 217.653 182.552 218.533 183.405 219.12C184.258 219.707 185.272 220 186.445 220C187.352 220 188.205 219.867 189.005 219.6C189.858 219.333 190.605 218.933 191.245 218.4C191.885 217.813 192.392 217.093 192.765 216.24C193.138 215.387 193.325 214.373 193.325 213.2V202.64ZM217.333 228V188H229.493L229.893 195.76C231.173 192.933 232.96 190.8 235.253 189.36C237.6 187.92 240.293 187.2 243.333 187.2C246.32 187.2 248.906 187.867 251.093 189.2C253.28 190.533 254.906 192.507 255.973 195.12C256.826 193.36 257.92 191.893 259.253 190.72C260.64 189.547 262.213 188.667 263.973 188.08C265.733 187.493 267.546 187.2 269.413 187.2C272.08 187.2 274.426 187.733 276.453 188.8C278.48 189.813 280.08 191.387 281.253 193.52C282.48 195.6 283.093 198.213 283.093 201.36V228H269.493V204.48C269.493 201.92 268.986 200.133 267.973 199.12C267.013 198.107 265.706 197.6 264.053 197.6C262.72 197.6 261.493 197.947 260.373 198.64C259.306 199.28 258.48 200.267 257.893 201.6C257.306 202.933 257.013 204.613 257.013 206.64V228H243.413V204.48C243.413 201.92 242.906 200.133 241.893 199.12C240.88 198.107 239.573 197.6 237.973 197.6C236.746 197.6 235.573 197.92 234.453 198.56C233.386 199.2 232.533 200.213 231.893 201.6C231.253 202.933 230.933 204.693 230.933 206.88V228H217.333ZM312.166 228.8C307.739 228.8 303.899 227.973 300.646 226.32C297.446 224.667 294.966 222.293 293.206 219.2C291.446 216.107 290.566 212.373 290.566 208C290.566 203.627 291.446 199.893 293.206 196.8C294.966 193.707 297.419 191.333 300.566 189.68C303.766 188.027 307.419 187.2 311.526 187.2C315.739 187.2 319.312 188.027 322.246 189.68C325.232 191.28 327.499 193.52 329.046 196.4C330.592 199.227 331.366 202.48 331.366 206.16C331.366 207.12 331.339 208.08 331.286 209.04C331.232 210 331.152 210.8 331.046 211.44H299.366V204.16H325.046L318.566 206.64C318.566 203.44 317.979 200.987 316.806 199.28C315.686 197.573 313.926 196.72 311.526 196.72C309.819 196.72 308.352 197.12 307.126 197.92C305.952 198.72 305.046 199.973 304.406 201.68C303.819 203.387 303.526 205.573 303.526 208.24C303.526 210.853 303.872 212.987 304.566 214.64C305.259 216.24 306.246 217.413 307.526 218.16C308.806 218.853 310.352 219.2 312.166 219.2C314.192 219.2 315.792 218.8 316.966 218C318.192 217.2 319.099 216.08 319.686 214.64L330.566 218.24C329.819 220.533 328.512 222.48 326.646 224.08C324.832 225.627 322.646 226.8 320.086 227.6C317.579 228.4 314.939 228.8 312.166 228.8Z" fill="#2E3769"/>
</svg>
