<svg width="400" height="400" viewBox="0 0 400 400" fill="none" xmlns="http://www.w3.org/2000/svg">
<rect x="4" y="4" width="392" height="392" rx="36" fill="#363AFF" stroke="white" stroke-width="8"/>
<path d="M141.38 228.8C138.767 228.8 136.447 228.213 134.42 227.04C132.447 225.867 130.82 224.267 129.54 222.24C128.26 220.16 127.434 217.813 127.06 215.2L128.34 213.52L127.62 228H115.7V171.04H129.3V200.56L128.02 198.64C128.767 195.333 130.287 192.613 132.58 190.48C134.874 188.293 137.967 187.2 141.86 187.2C144.954 187.2 147.7 188.027 150.1 189.68C152.554 191.333 154.447 193.733 155.78 196.88C157.167 199.973 157.86 203.733 157.86 208.16C157.86 212.48 157.167 216.187 155.78 219.28C154.394 222.373 152.474 224.747 150.02 226.4C147.567 228 144.687 228.8 141.38 228.8ZM136.66 218.8C139.007 218.8 140.847 217.947 142.18 216.24C143.514 214.48 144.18 211.733 144.18 208C144.18 204.267 143.514 201.547 142.18 199.84C140.847 198.08 139.007 197.2 136.66 197.2C135.114 197.2 133.78 197.653 132.66 198.56C131.594 199.413 130.767 200.64 130.18 202.24C129.594 203.84 129.3 205.787 129.3 208.08C129.3 210.373 129.594 212.32 130.18 213.92C130.767 215.52 131.62 216.747 132.74 217.6C133.86 218.4 135.167 218.8 136.66 218.8ZM184.897 187.2C189.11 187.2 192.79 188.027 195.937 189.68C199.137 191.28 201.617 193.653 203.377 196.8C205.19 199.893 206.097 203.627 206.097 208C206.097 212.373 205.19 216.133 203.377 219.28C201.617 222.373 199.137 224.747 195.937 226.4C192.79 228 189.11 228.8 184.897 228.8C180.79 228.8 177.137 228 173.937 226.4C170.737 224.747 168.23 222.373 166.417 219.28C164.657 216.133 163.777 212.373 163.777 208C163.777 203.627 164.657 199.893 166.417 196.8C168.23 193.653 170.737 191.28 173.937 189.68C177.137 188.027 180.79 187.2 184.897 187.2ZM184.897 196.88C183.35 196.88 182.017 197.253 180.897 198C179.777 198.747 178.923 199.947 178.337 201.6C177.75 203.253 177.457 205.387 177.457 208C177.457 210.613 177.75 212.747 178.337 214.4C178.923 216 179.777 217.2 180.897 218C182.017 218.747 183.35 219.12 184.897 219.12C186.497 219.12 187.857 218.747 188.977 218C190.097 217.2 190.95 216 191.537 214.4C192.123 212.747 192.417 210.613 192.417 208C192.417 205.387 192.123 203.253 191.537 201.6C190.95 199.947 190.097 198.747 188.977 198C187.857 197.253 186.497 196.88 184.897 196.88ZM213.747 228V188H225.747L226.307 196.64C227.321 193.653 228.814 191.333 230.787 189.68C232.814 188.027 235.374 187.2 238.467 187.2C239.481 187.2 240.334 187.28 241.027 187.44C241.774 187.6 242.361 187.813 242.787 188.08L241.427 199.28C240.894 199.067 240.201 198.907 239.347 198.8C238.547 198.64 237.561 198.56 236.387 198.56C234.787 198.56 233.294 198.907 231.907 199.6C230.521 200.293 229.401 201.333 228.547 202.72C227.747 204.053 227.347 205.76 227.347 207.84V228H213.747ZM270.052 202.64C270.052 200.773 269.518 199.307 268.452 198.24C267.438 197.12 266.052 196.56 264.292 196.56C262.532 196.56 261.012 197.013 259.732 197.92C258.505 198.773 257.652 200.32 257.172 202.56L245.652 199.84C246.398 196 248.372 192.933 251.572 190.64C254.772 188.347 259.278 187.2 265.092 187.2C268.985 187.2 272.292 187.787 275.012 188.96C277.785 190.08 279.892 191.787 281.332 194.08C282.825 196.32 283.572 199.093 283.572 202.4V217.04C283.572 219.12 284.505 220.16 286.372 220.16C287.332 220.16 288.105 220.053 288.692 219.84L287.892 227.6C286.292 228.347 284.345 228.72 282.052 228.72C279.972 228.72 278.132 228.4 276.532 227.76C274.932 227.067 273.678 226.053 272.772 224.72C271.865 223.333 271.412 221.6 271.412 219.52V219.04L272.932 218.48C272.932 220.773 272.238 222.693 270.852 224.24C269.518 225.787 267.758 226.933 265.572 227.68C263.438 228.427 261.198 228.8 258.852 228.8C256.132 228.8 253.758 228.373 251.732 227.52C249.705 226.667 248.132 225.44 247.012 223.84C245.945 222.187 245.412 220.16 245.412 217.76C245.412 214.88 246.265 212.507 247.972 210.64C249.732 208.72 252.478 207.387 256.212 206.64L271.332 203.52L271.252 210.72L263.572 212.32C261.972 212.64 260.772 213.12 259.972 213.76C259.225 214.347 258.852 215.253 258.852 216.48C258.852 217.653 259.278 218.533 260.132 219.12C260.985 219.707 261.998 220 263.172 220C264.078 220 264.932 219.867 265.732 219.6C266.585 219.333 267.332 218.933 267.972 218.4C268.612 217.813 269.118 217.093 269.492 216.24C269.865 215.387 270.052 214.373 270.052 213.2V202.64Z" fill="white"/>
</svg>
