<svg width="400" height="400" viewBox="0 0 400 400" fill="none" xmlns="http://www.w3.org/2000/svg">
<rect x="4" y="4" width="392" height="392" rx="36" fill="#F5F5F5" stroke="#09609F" stroke-width="8"/>
<path d="M99.8947 187.2C103.948 187.2 107.308 187.787 109.975 188.96C112.695 190.08 114.801 191.6 116.295 193.52C117.841 195.387 118.801 197.413 119.175 199.6L106.615 203.76C106.241 201.467 105.548 199.76 104.535 198.64C103.575 197.467 102.161 196.88 100.295 196.88C98.588 196.88 97.148 197.28 95.9747 198.08C94.8547 198.827 94.0014 200.053 93.4147 201.76C92.828 203.413 92.5347 205.547 92.5347 208.16C92.5347 210.773 92.8547 212.907 93.4947 214.56C94.1347 216.16 95.0414 217.333 96.2147 218.08C97.388 218.773 98.7747 219.12 100.375 219.12C101.708 219.12 102.801 218.88 103.655 218.4C104.561 217.867 105.308 217.12 105.895 216.16C106.481 215.2 106.855 214.027 107.015 212.64L119.255 216.56C118.881 218.907 117.868 221.013 116.215 222.88C114.615 224.693 112.481 226.133 109.815 227.2C107.148 228.267 104.028 228.8 100.455 228.8C96.0814 228.8 92.268 228 89.0147 226.4C85.7614 224.747 83.2547 222.373 81.4947 219.28C79.7347 216.133 78.8547 212.373 78.8547 208C78.8547 203.627 79.7347 199.893 81.4947 196.8C83.2547 193.653 85.708 191.28 88.8547 189.68C92.0547 188.027 95.7347 187.2 99.8947 187.2ZM145.365 187.2C149.579 187.2 153.259 188.027 156.405 189.68C159.605 191.28 162.085 193.653 163.845 196.8C165.659 199.893 166.565 203.627 166.565 208C166.565 212.373 165.659 216.133 163.845 219.28C162.085 222.373 159.605 224.747 156.405 226.4C153.259 228 149.579 228.8 145.365 228.8C141.259 228.8 137.605 228 134.405 226.4C131.205 224.747 128.699 222.373 126.885 219.28C125.125 216.133 124.245 212.373 124.245 208C124.245 203.627 125.125 199.893 126.885 196.8C128.699 193.653 131.205 191.28 134.405 189.68C137.605 188.027 141.259 187.2 145.365 187.2ZM145.365 196.88C143.819 196.88 142.485 197.253 141.365 198C140.245 198.747 139.392 199.947 138.805 201.6C138.219 203.253 137.925 205.387 137.925 208C137.925 210.613 138.219 212.747 138.805 214.4C139.392 216 140.245 217.2 141.365 218C142.485 218.747 143.819 219.12 145.365 219.12C146.965 219.12 148.325 218.747 149.445 218C150.565 217.2 151.419 216 152.005 214.4C152.592 212.747 152.885 210.613 152.885 208C152.885 205.387 152.592 203.253 152.005 201.6C151.419 199.947 150.565 198.747 149.445 198C148.325 197.253 146.965 196.88 145.365 196.88ZM174.216 228V188H186.376L187.096 201.76L185.576 200.24C186.109 197.36 187.043 194.96 188.376 193.04C189.763 191.12 191.469 189.68 193.496 188.72C195.576 187.707 197.896 187.2 200.456 187.2C203.229 187.2 205.629 187.733 207.656 188.8C209.736 189.867 211.363 191.44 212.536 193.52C213.709 195.6 214.296 198.213 214.296 201.36V228H200.696V204.96C200.696 202.187 200.163 200.267 199.096 199.2C198.029 198.133 196.669 197.6 195.016 197.6C193.736 197.6 192.536 197.92 191.416 198.56C190.296 199.147 189.416 200.107 188.776 201.44C188.136 202.773 187.816 204.56 187.816 206.8V228H174.216ZM240.311 175.28V213.76C240.311 215.68 240.764 217.067 241.671 217.92C242.631 218.72 243.938 219.12 245.591 219.12C246.871 219.12 247.964 218.987 248.871 218.72C249.831 218.4 250.684 217.947 251.431 217.36L252.871 225.76C251.538 226.72 249.858 227.467 247.831 228C245.804 228.533 243.724 228.8 241.591 228.8C238.551 228.8 235.911 228.373 233.671 227.52C231.484 226.667 229.778 225.307 228.551 223.44C227.378 221.573 226.764 219.093 226.711 216V179.04L240.311 175.28ZM252.231 188V197.68H219.831V188H252.231ZM281.536 202.64C281.536 200.773 281.003 199.307 279.936 198.24C278.923 197.12 277.536 196.56 275.776 196.56C274.016 196.56 272.496 197.013 271.216 197.92C269.989 198.773 269.136 200.32 268.656 202.56L257.136 199.84C257.883 196 259.856 192.933 263.056 190.64C266.256 188.347 270.763 187.2 276.576 187.2C280.469 187.2 283.776 187.787 286.496 188.96C289.269 190.08 291.376 191.787 292.816 194.08C294.309 196.32 295.056 199.093 295.056 202.4V217.04C295.056 219.12 295.989 220.16 297.856 220.16C298.816 220.16 299.589 220.053 300.176 219.84L299.376 227.6C297.776 228.347 295.829 228.72 293.536 228.72C291.456 228.72 289.616 228.4 288.016 227.76C286.416 227.067 285.163 226.053 284.256 224.72C283.349 223.333 282.896 221.6 282.896 219.52V219.04L284.416 218.48C284.416 220.773 283.723 222.693 282.336 224.24C281.003 225.787 279.243 226.933 277.056 227.68C274.923 228.427 272.683 228.8 270.336 228.8C267.616 228.8 265.243 228.373 263.216 227.52C261.189 226.667 259.616 225.44 258.496 223.84C257.429 222.187 256.896 220.16 256.896 217.76C256.896 214.88 257.749 212.507 259.456 210.64C261.216 208.72 263.963 207.387 267.696 206.64L282.816 203.52L282.736 210.72L275.056 212.32C273.456 212.64 272.256 213.12 271.456 213.76C270.709 214.347 270.336 215.253 270.336 216.48C270.336 217.653 270.763 218.533 271.616 219.12C272.469 219.707 273.483 220 274.656 220C275.563 220 276.416 219.867 277.216 219.6C278.069 219.333 278.816 218.933 279.456 218.4C280.096 217.813 280.603 217.093 280.976 216.24C281.349 215.387 281.536 214.373 281.536 213.2V202.64ZM312.344 183.36C309.571 183.36 307.544 182.853 306.264 181.84C305.037 180.773 304.424 179.12 304.424 176.88C304.424 174.587 305.037 172.933 306.264 171.92C307.544 170.853 309.571 170.32 312.344 170.32C315.064 170.32 317.064 170.853 318.344 171.92C319.624 172.933 320.264 174.587 320.264 176.88C320.264 179.12 319.624 180.773 318.344 181.84C317.064 182.853 315.064 183.36 312.344 183.36ZM319.144 188V228H305.544V188H319.144Z" fill="#09609F"/>
</svg>
